<svg viewBox="0 0 1400 27.603" height="27.603" width="1400" xmlns:xlink="http://www.w3.org/1999/xlink" xmlns="http://www.w3.org/2000/svg">
  <defs>
    <clipPath id="clip-path">
      <rect fill="none" height="27.603" width="706.561" data-name="Rectangle 155" id="Rectangle_155"></rect>
    </clipPath>
  </defs>
  <g transform="translate(0 0)" data-name="Group 5587" id="Group_5587">
    <g transform="translate(0 0)" data-name="Group 4823" id="Group_4823">
      <path fill="#ed9724" transform="translate(0 0)" d="M0,0V27.6H706.561V0Z" data-name="Path 4958" id="Path_4958"></path>
      <g data-name="Group 4822" id="Group_4822">
        <g clip-path="url(#clip-path)" data-name="Group 4821" id="Group_4821">
          <path fill="#27853b" transform="translate(3.554 3.606)" d="M7.2,10.993c-.324.294-.484.442-.809.739.51-.135.767-.2,1.277-.336-.114.464-.171.7-.285,1.161.475-.218.714-.325,1.187-.541-.053.471-.082.706-.135,1.178.451-.25.678-.377,1.134-.625-.017.471-.025.706-.04,1.179.433-.28.649-.419,1.086-.694.022.468.034.7.059,1.172.4-.311.605-.467,1.01-.776.095.459.142.688.238,1.147l.719-.96c.327.344.487.515.812.857.031-.464.047-.7.079-1.158.433.25.65.375,1.086.624-.044-.457-.065-.688-.107-1.147l1.154.534c-.079-.453-.118-.68-.2-1.133l1.193.47c-.112-.447-.166-.671-.275-1.117.492.162.736.241,1.228.4l-.378-1.089,1.276.277-.759-.753c.282-.321.423-.479.708-.8l-1.268.344L17.5,8.832c-.485.187-.727.28-1.21.468.082-.456.124-.683.205-1.137-.47.21-.706.316-1.176.529.053-.461.078-.691.129-1.15l-1.139.588c.016-.464.022-.7.036-1.159-.426.269-.643.4-1.069.675-.059-.464-.089-.7-.146-1.159-.308.359-.464.54-.772.9-.33-.349-.495-.524-.821-.874-.033.468-.051.7-.086,1.172-.443-.254-.666-.381-1.111-.638.04.47.059.7.1,1.175C9.968,8.007,9.733,7.9,9.26,7.68l.2,1.17c-.489-.185-.733-.277-1.22-.464.118.464.176.694.294,1.158l-1.26-.37c.173.45.26.674.429,1.123l-1.312-.184c.324.353.484.529.807.879" data-name="Path 4959" id="Path_4959"></path>
          <path fill="#27853b" transform="translate(10.225 3.889)" d="M19.2,11.5c-.324.294-.485.442-.809.739.51-.135.767-.2,1.277-.336-.114.464-.171.7-.285,1.161.475-.218.713-.325,1.187-.541-.054.471-.082.706-.137,1.178.453-.25.68-.377,1.134-.625-.016.471-.025.706-.04,1.179.434-.28.65-.419,1.086-.694.023.468.036.7.061,1.172l1.008-.776c.1.459.143.688.24,1.147.288-.386.431-.577.719-.96l.812.857.078-1.158c.434.25.652.375,1.088.624-.044-.457-.065-.688-.107-1.147.462.215.692.321,1.154.534-.079-.453-.12-.68-.2-1.133l1.192.47c-.11-.447-.165-.671-.275-1.117.492.162.737.241,1.229.4l-.378-1.089c.51.112.765.166,1.276.277l-.761-.753c.283-.321.425-.479.708-.8-.507.137-.761.205-1.266.344.121-.447.184-.669.307-1.116-.485.187-.727.28-1.21.468.082-.456.123-.683.205-1.137-.47.21-.706.316-1.176.529.051-.461.078-.691.129-1.15-.456.235-.683.352-1.139.588.014-.464.022-.7.036-1.159l-1.07.675c-.058-.464-.087-.7-.145-1.159-.308.359-.464.54-.772.9-.33-.349-.495-.524-.823-.874-.033.468-.05.7-.084,1.172-.445-.254-.667-.381-1.112-.638.04.47.061.7.1,1.175-.473-.215-.708-.324-1.179-.541l.2,1.17c-.489-.185-.733-.277-1.22-.464.118.464.176.694.294,1.158-.5-.148-.756-.221-1.26-.37.173.45.258.674.429,1.122-.524-.072-.787-.109-1.312-.182.324.353.484.529.807.879" data-name="Path 4960" id="Path_4960"></path>
          <path fill="#27853b" transform="translate(16.896 3.606)" d="M31.2,10.993c-.324.294-.485.442-.809.739.51-.135.767-.2,1.277-.336-.114.464-.171.7-.285,1.161.475-.218.713-.325,1.187-.541-.054.471-.082.706-.137,1.178.453-.25.68-.377,1.134-.625-.016.471-.025.706-.04,1.179.434-.28.65-.419,1.086-.694.023.468.036.7.061,1.172l1.008-.776c.1.459.143.688.24,1.147.288-.386.431-.577.719-.96l.812.857.078-1.158c.434.25.652.375,1.088.624-.044-.457-.065-.688-.107-1.147.462.215.692.321,1.154.534-.079-.453-.12-.68-.2-1.133l1.192.47c-.11-.447-.165-.671-.275-1.117.492.162.737.241,1.229.4l-.378-1.089,1.276.277-.761-.753c.283-.321.425-.479.708-.8-.507.137-.761.205-1.266.344.121-.447.184-.669.307-1.116-.485.187-.727.28-1.21.468.082-.456.123-.683.205-1.137-.47.21-.706.316-1.176.529.051-.461.078-.691.129-1.15-.456.235-.683.352-1.139.588.014-.464.022-.7.036-1.159l-1.07.675c-.058-.464-.087-.7-.145-1.159-.308.359-.464.54-.772.9-.33-.349-.495-.524-.823-.874-.033.468-.05.7-.084,1.172-.445-.254-.667-.381-1.112-.638.04.47.061.7.1,1.175-.473-.215-.708-.324-1.179-.541l.2,1.17c-.489-.185-.733-.277-1.22-.464.118.464.176.694.294,1.158-.5-.148-.756-.221-1.26-.37.173.45.258.674.429,1.123L30.4,10.114c.324.353.484.529.807.879" data-name="Path 4961" id="Path_4961"></path>
          <path fill="#27853b" transform="translate(22.919 3.606)" d="M42.041,10.993c-.324.294-.485.442-.809.739.51-.135.767-.2,1.277-.336-.114.464-.171.7-.285,1.161l1.187-.541c-.054.471-.082.706-.137,1.178.453-.25.68-.377,1.134-.625-.016.471-.025.706-.04,1.179.434-.28.652-.419,1.086-.694.023.468.036.7.061,1.172l1.008-.776c.1.459.143.688.24,1.147.288-.386.431-.577.719-.96l.812.857.078-1.158c.434.25.652.375,1.088.624-.044-.457-.065-.688-.107-1.147.462.215.692.321,1.154.534-.079-.453-.12-.68-.2-1.133l1.192.47c-.11-.447-.165-.671-.275-1.117.492.162.737.241,1.229.4l-.378-1.089,1.276.277L52.59,10.4c.283-.321.425-.479.708-.8-.507.137-.761.205-1.266.344l.307-1.116c-.485.187-.727.28-1.21.468.082-.456.123-.683.205-1.137-.47.21-.706.316-1.176.529.051-.461.078-.691.129-1.15-.456.235-.683.352-1.139.588.014-.464.022-.7.036-1.159l-1.07.675c-.058-.464-.087-.7-.145-1.159-.308.359-.464.54-.772.9-.33-.349-.493-.524-.823-.874-.033.468-.05.7-.084,1.172-.445-.254-.667-.381-1.112-.638.04.47.061.7.1,1.175-.473-.215-.708-.324-1.179-.541l.2,1.17c-.489-.185-.733-.277-1.22-.464.118.464.176.694.294,1.158-.5-.148-.756-.221-1.26-.37.173.45.258.674.429,1.123l-1.312-.184c.324.353.484.529.807.879" data-name="Path 4962" id="Path_4962"></path>
          <path fill="#27853b" transform="translate(29.59 3.606)" d="M54.041,10.993c-.324.294-.485.442-.809.739.51-.135.767-.2,1.277-.336-.114.464-.171.7-.285,1.161.475-.218.713-.325,1.187-.541-.054.471-.082.706-.137,1.178.453-.25.68-.377,1.134-.625-.016.471-.025.706-.04,1.179.434-.28.652-.419,1.086-.694.023.468.036.7.061,1.172l1.008-.776c.1.459.143.688.24,1.147.288-.386.431-.577.719-.96l.812.857.078-1.158c.434.25.652.375,1.088.624-.044-.457-.065-.688-.107-1.147.462.215.692.321,1.154.534-.079-.453-.12-.68-.2-1.133l1.192.47c-.11-.447-.165-.671-.275-1.117.492.162.737.241,1.229.4l-.378-1.089,1.276.277L64.59,10.4c.283-.321.425-.479.708-.8-.507.137-.761.205-1.266.344.121-.447.184-.669.307-1.116-.485.187-.727.28-1.21.468.082-.456.123-.683.205-1.137-.47.21-.706.316-1.176.529.051-.461.078-.691.129-1.15-.456.235-.683.352-1.139.588.014-.464.022-.7.036-1.159l-1.07.675c-.058-.464-.087-.7-.145-1.159-.308.359-.464.54-.772.9-.33-.349-.493-.524-.823-.874-.033.468-.05.7-.084,1.172-.445-.254-.667-.381-1.112-.638.04.47.061.7.1,1.175-.473-.215-.708-.324-1.179-.541l.2,1.17c-.489-.185-.733-.277-1.22-.464.118.464.176.694.294,1.158-.5-.148-.756-.221-1.26-.37.173.45.258.674.429,1.123l-1.312-.184c.324.353.484.529.807.879" data-name="Path 4963" id="Path_4963"></path>
          <path fill="#27853b" transform="translate(36.261 3.889)" d="M66.042,11.5c-.324.294-.485.442-.809.739.51-.135.767-.2,1.277-.336-.114.464-.171.7-.285,1.161.475-.218.713-.325,1.187-.541-.054.471-.082.706-.137,1.178.453-.25.68-.377,1.134-.625-.016.471-.025.706-.04,1.179.434-.28.652-.419,1.086-.694.023.468.036.7.061,1.172l1.008-.776c.1.459.143.688.24,1.147.288-.386.431-.577.719-.96L72.3,15l.078-1.158c.434.25.652.375,1.088.624-.044-.457-.065-.688-.107-1.147.462.215.692.321,1.154.534-.079-.453-.12-.68-.2-1.133l1.192.47c-.11-.447-.165-.671-.275-1.117.492.162.737.241,1.229.4l-.378-1.089c.51.112.765.166,1.276.277l-.761-.753c.283-.321.425-.479.708-.8-.507.137-.761.205-1.266.344.121-.447.184-.669.307-1.116-.485.187-.727.28-1.21.468.082-.456.123-.683.205-1.137-.47.21-.706.316-1.176.529.051-.461.078-.691.129-1.15-.456.235-.683.352-1.139.588.014-.464.022-.7.036-1.159l-1.07.675c-.058-.464-.087-.7-.145-1.159-.308.359-.464.54-.772.9-.33-.349-.493-.524-.823-.874-.033.468-.05.7-.084,1.172-.445-.254-.667-.381-1.112-.638.04.47.061.7.1,1.175-.473-.215-.708-.324-1.179-.541l.2,1.17c-.489-.185-.733-.277-1.22-.464.118.464.176.694.294,1.158-.5-.148-.756-.221-1.26-.37.173.45.258.674.429,1.122-.524-.072-.787-.109-1.312-.182.324.353.484.529.807.879" data-name="Path 4964" id="Path_4964"></path>
          <path fill="#27853b" transform="translate(42.932 3.606)" d="M78.043,10.993c-.324.294-.485.442-.809.739.51-.135.767-.2,1.277-.336-.114.464-.171.7-.285,1.161.475-.218.713-.325,1.187-.541-.054.471-.082.706-.137,1.178.453-.25.68-.377,1.134-.625-.016.471-.025.706-.04,1.179.434-.28.652-.419,1.086-.694.023.468.036.7.061,1.172l1.008-.776c.1.459.143.688.24,1.147.288-.386.431-.577.719-.96l.812.857.078-1.158c.434.25.652.375,1.088.624-.044-.457-.065-.688-.107-1.147.462.215.692.321,1.154.534-.079-.453-.12-.68-.2-1.133l1.192.47c-.11-.447-.165-.671-.275-1.117.492.162.737.241,1.229.4l-.378-1.089,1.276.277-.761-.753c.283-.321.425-.479.708-.8-.507.137-.761.205-1.266.344.121-.447.184-.669.307-1.116-.485.187-.727.28-1.21.468.082-.456.123-.683.205-1.137-.47.21-.706.316-1.176.529.051-.461.078-.691.129-1.15-.456.235-.683.352-1.139.588.014-.464.022-.7.036-1.159l-1.07.675c-.058-.464-.087-.7-.145-1.159-.308.359-.464.54-.772.9-.33-.349-.495-.524-.823-.874-.033.468-.05.7-.084,1.172-.445-.254-.667-.381-1.112-.638.04.47.061.7.1,1.175-.473-.215-.708-.324-1.179-.541l.2,1.17c-.489-.185-.733-.277-1.22-.464.118.464.176.694.294,1.158-.5-.148-.756-.221-1.26-.37.173.45.258.674.429,1.123l-1.312-.184c.324.353.484.529.807.879" data-name="Path 4965" id="Path_4965"></path>
          <path fill="#27853b" transform="translate(48.956 3.606)" d="M88.88,10.993c-.324.294-.485.442-.809.739.51-.135.767-.2,1.277-.336-.114.464-.171.7-.285,1.161.475-.218.713-.325,1.187-.541-.054.471-.082.706-.137,1.178.453-.25.68-.377,1.134-.625-.016.471-.025.706-.04,1.179.434-.28.65-.419,1.086-.694.023.468.036.7.061,1.172l1.008-.776c.1.459.143.688.24,1.147.288-.386.431-.577.719-.96l.812.857c.031-.464.047-.7.078-1.158.434.25.652.375,1.088.624-.044-.457-.065-.688-.107-1.147.462.215.692.321,1.154.534-.079-.453-.12-.68-.2-1.133l1.192.47c-.11-.447-.165-.671-.275-1.117.492.162.737.241,1.229.4l-.378-1.089,1.276.277-.761-.753c.283-.321.425-.479.708-.8-.507.137-.761.205-1.266.344.121-.447.184-.669.306-1.116-.485.187-.727.28-1.21.468.082-.456.123-.683.205-1.137-.47.21-.706.316-1.176.529.051-.461.078-.691.129-1.15-.456.235-.683.352-1.139.588.014-.464.022-.7.036-1.159l-1.07.675c-.058-.464-.087-.7-.145-1.159-.308.359-.464.54-.772.9-.33-.349-.495-.524-.823-.874-.033.468-.05.7-.084,1.172-.445-.254-.667-.381-1.112-.638.04.47.061.7.1,1.175-.473-.215-.708-.324-1.179-.541l.2,1.17c-.489-.185-.733-.277-1.22-.464.118.464.176.694.294,1.158-.5-.148-.756-.221-1.26-.37.173.45.258.674.429,1.123l-1.312-.184c.324.353.484.529.808.879" data-name="Path 4966" id="Path_4966"></path>
          <path fill="#27853b" transform="translate(55.626 3.606)" d="M100.88,10.993c-.324.294-.485.442-.809.739.51-.135.767-.2,1.277-.336-.114.464-.171.7-.285,1.161l1.187-.541c-.054.471-.082.706-.137,1.178.453-.25.68-.377,1.134-.625-.016.471-.025.706-.04,1.179.434-.28.652-.419,1.086-.694.023.468.036.7.061,1.172l1.008-.776c.1.459.143.688.24,1.147.288-.386.431-.577.719-.96l.812.857c.031-.464.047-.7.078-1.158.434.25.652.375,1.088.624-.044-.457-.065-.688-.107-1.147.462.215.692.321,1.154.534-.079-.453-.12-.68-.2-1.133l1.192.47c-.11-.447-.165-.671-.275-1.117.492.162.737.241,1.229.4l-.378-1.089,1.276.277-.761-.753c.283-.321.425-.479.708-.8-.507.137-.761.205-1.266.344l.307-1.116c-.485.187-.727.28-1.21.468.082-.456.123-.683.205-1.137-.47.21-.706.316-1.176.529.051-.461.078-.691.129-1.15-.456.235-.683.352-1.139.588.014-.464.022-.7.036-1.159l-1.07.675c-.058-.464-.087-.7-.145-1.159-.308.359-.464.54-.772.9-.33-.349-.493-.524-.823-.874-.033.468-.05.7-.084,1.172-.445-.254-.667-.381-1.112-.638.04.47.061.7.1,1.175-.473-.215-.708-.324-1.179-.541l.2,1.17c-.489-.185-.733-.277-1.22-.464.118.464.176.694.294,1.158-.5-.148-.756-.221-1.26-.37.173.45.258.674.429,1.123l-1.312-.184c.324.353.484.529.808.879" data-name="Path 4967" id="Path_4967"></path>
          <path fill="#27853b" transform="translate(62.297 3.889)" d="M112.881,11.5c-.324.294-.485.442-.809.739.51-.135.767-.2,1.277-.336-.114.464-.171.7-.285,1.161l1.187-.541c-.054.471-.082.706-.137,1.178.453-.25.68-.377,1.134-.625-.016.471-.025.706-.04,1.179.434-.28.652-.419,1.086-.694.023.468.036.7.061,1.172l1.008-.776c.1.459.143.688.24,1.147.288-.386.431-.577.719-.96l.812.857c.031-.464.047-.7.078-1.158.434.25.652.375,1.088.624-.044-.457-.065-.688-.107-1.147.462.215.692.321,1.154.534-.079-.453-.12-.68-.2-1.133l1.192.47c-.11-.447-.165-.671-.275-1.117.492.162.737.241,1.229.4l-.378-1.089c.51.112.765.166,1.276.277l-.761-.753c.283-.321.425-.479.708-.8-.507.137-.761.205-1.266.344.121-.447.184-.669.307-1.116-.485.187-.727.28-1.21.468.082-.456.123-.683.205-1.137-.47.21-.706.316-1.176.529.051-.461.078-.691.129-1.15-.456.235-.683.352-1.139.588.014-.464.022-.7.036-1.159l-1.07.675c-.058-.464-.087-.7-.145-1.159-.308.359-.464.54-.772.9-.33-.349-.493-.524-.823-.874-.033.468-.05.7-.084,1.172-.445-.254-.667-.381-1.112-.638.04.47.061.7.1,1.175-.473-.215-.708-.324-1.179-.541l.2,1.17c-.489-.185-.733-.277-1.22-.464.118.464.176.694.294,1.158-.5-.148-.756-.221-1.26-.37.173.45.258.674.429,1.122-.524-.072-.787-.109-1.312-.182.324.353.484.529.808.879" data-name="Path 4968" id="Path_4968"></path>
          <path fill="#27853b" transform="translate(68.968 3.606)" d="M124.88,10.993c-.324.294-.484.442-.807.739.509-.135.765-.2,1.277-.336-.115.464-.171.7-.286,1.161l1.187-.541c-.054.471-.081.706-.137,1.178.453-.25.681-.377,1.136-.625-.017.471-.026.706-.04,1.179.434-.28.65-.419,1.084-.694.023.468.037.7.062,1.172.4-.311.605-.467,1.007-.776.1.459.143.688.241,1.147.288-.386.429-.577.717-.96l.812.857c.033-.464.047-.7.078-1.158l1.089.624c-.044-.457-.067-.688-.107-1.147l1.153.534c-.079-.453-.12-.68-.2-1.133l1.19.47c-.11-.447-.163-.671-.275-1.117l1.231.4-.378-1.089,1.274.277-.761-.753.708-.8c-.507.137-.759.205-1.265.344.121-.447.184-.669.3-1.116-.485.187-.727.28-1.21.468.084-.456.124-.683.205-1.137-.47.21-.7.316-1.175.529.05-.461.078-.691.128-1.15-.456.235-.683.352-1.137.588.014-.464.02-.7.034-1.159l-1.07.675c-.056-.464-.087-.7-.143-1.159-.31.359-.464.54-.772.9-.331-.349-.493-.524-.825-.874-.033.468-.05.7-.082,1.172-.447-.254-.667-.381-1.114-.638.04.47.061.7.1,1.175-.475-.215-.709-.324-1.181-.541.081.468.121.7.2,1.17-.49-.185-.733-.277-1.221-.464.12.464.176.694.3,1.158l-1.262-.37c.173.45.258.674.429,1.123l-1.31-.184c.324.353.484.529.806.879" data-name="Path 4969" id="Path_4969"></path>
          <path fill="#27853b" transform="translate(74.991 3.606)" d="M135.718,10.993c-.324.294-.485.442-.809.739.51-.135.767-.2,1.277-.336-.114.464-.171.7-.285,1.161.475-.218.713-.325,1.187-.541-.054.471-.082.706-.137,1.178.453-.25.68-.377,1.134-.625-.016.471-.025.706-.04,1.179.434-.28.652-.419,1.086-.694.023.468.036.7.061,1.172l1.008-.776c.1.459.143.688.24,1.147.288-.386.431-.577.719-.96l.812.857.078-1.158c.434.25.652.375,1.088.624-.044-.457-.065-.688-.107-1.147.462.215.692.321,1.154.534-.079-.453-.12-.68-.2-1.133l1.192.47c-.11-.447-.165-.671-.275-1.117.492.162.738.241,1.229.4l-.378-1.089,1.276.277-.761-.753c.283-.321.425-.479.708-.8-.507.137-.761.205-1.266.344.121-.447.184-.669.306-1.116-.485.187-.727.28-1.21.468.082-.456.123-.683.205-1.137-.47.21-.706.316-1.176.529.051-.461.078-.691.129-1.15-.456.235-.683.352-1.139.588.014-.464.022-.7.036-1.159l-1.07.675c-.058-.464-.087-.7-.145-1.159-.308.359-.464.54-.772.9-.33-.349-.493-.524-.823-.874-.033.468-.05.7-.084,1.172-.445-.254-.667-.381-1.112-.638.04.47.061.7.1,1.175-.473-.215-.708-.324-1.179-.541l.2,1.17c-.489-.185-.733-.277-1.22-.464.117.464.176.694.294,1.158-.5-.148-.756-.221-1.26-.37.173.45.258.674.429,1.123l-1.312-.184c.324.353.484.529.807.879" data-name="Path 4970" id="Path_4970"></path>
          <path fill="#27853b" transform="translate(81.662 3.606)" d="M147.719,10.993c-.324.294-.485.442-.809.739.51-.135.767-.2,1.277-.336-.114.464-.171.7-.285,1.161.475-.218.713-.325,1.187-.541-.054.471-.082.706-.137,1.178.453-.25.68-.377,1.134-.625-.016.471-.025.706-.04,1.179.434-.28.65-.419,1.086-.694.023.468.036.7.061,1.172l1.008-.776c.1.459.143.688.24,1.147.288-.386.431-.577.719-.96l.812.857c.031-.464.047-.7.078-1.158.434.25.652.375,1.088.624-.044-.457-.065-.688-.107-1.147.462.215.692.321,1.154.534-.079-.453-.12-.68-.2-1.133l1.192.47c-.111-.447-.165-.671-.275-1.117.492.162.738.241,1.229.4l-.378-1.089,1.276.277-.761-.753c.283-.321.425-.479.708-.8-.507.137-.761.205-1.266.344.121-.447.184-.669.307-1.116-.485.187-.727.28-1.21.468.082-.456.123-.683.205-1.137-.47.21-.706.316-1.176.529.051-.461.078-.691.129-1.15-.456.235-.683.352-1.139.588.014-.464.022-.7.036-1.159l-1.07.675c-.058-.464-.087-.7-.145-1.159-.308.359-.464.54-.772.9-.33-.349-.495-.524-.823-.874-.033.468-.05.7-.084,1.172-.445-.254-.667-.381-1.112-.638.04.47.061.7.1,1.175-.473-.215-.708-.324-1.179-.541l.2,1.17c-.489-.185-.733-.277-1.22-.464.117.464.176.694.294,1.158-.5-.148-.756-.221-1.26-.37.173.45.258.674.429,1.123l-1.312-.184c.324.353.484.529.808.879" data-name="Path 4971" id="Path_4971"></path>
          <path fill="#27853b" transform="translate(88.333 3.889)" d="M159.72,11.5c-.324.294-.485.442-.809.739.51-.135.767-.2,1.277-.336-.114.464-.171.7-.285,1.161.475-.218.713-.325,1.187-.541-.054.471-.082.706-.137,1.178.453-.25.68-.377,1.134-.625-.016.471-.025.706-.04,1.179.434-.28.65-.419,1.086-.694.023.468.036.7.061,1.172l1.008-.776c.1.459.143.688.24,1.147.288-.386.431-.577.719-.96l.812.857c.031-.464.047-.7.078-1.158.434.25.652.375,1.088.624-.044-.457-.065-.688-.107-1.147.462.215.692.321,1.154.534-.079-.453-.12-.68-.2-1.133l1.192.47c-.11-.447-.165-.671-.275-1.117.492.162.737.241,1.229.4l-.378-1.089c.51.112.765.166,1.276.277l-.761-.753c.283-.321.425-.479.708-.8-.507.137-.761.205-1.266.344.121-.447.184-.669.306-1.116-.485.187-.727.28-1.21.468.082-.456.123-.683.205-1.137-.47.21-.706.316-1.176.529.051-.461.078-.691.129-1.15-.456.235-.683.352-1.139.588.014-.464.022-.7.036-1.159l-1.07.675c-.058-.464-.087-.7-.145-1.159-.308.359-.464.54-.772.9-.33-.349-.495-.524-.823-.874-.033.468-.05.7-.084,1.172-.445-.254-.667-.381-1.112-.638.04.47.061.7.1,1.175-.473-.215-.708-.324-1.179-.541l.2,1.17c-.489-.185-.733-.277-1.22-.464.118.464.176.694.294,1.158-.5-.148-.756-.221-1.26-.37.173.45.258.674.429,1.122-.524-.072-.787-.109-1.312-.182.324.353.484.529.807.879" data-name="Path 4972" id="Path_4972"></path>
          <path fill="#27853b" transform="translate(95.004 3.606)" d="M171.72,10.993c-.324.294-.485.442-.809.739.51-.135.767-.2,1.277-.336-.114.464-.171.7-.285,1.161.475-.218.713-.325,1.187-.541-.054.471-.082.706-.137,1.178.453-.25.68-.377,1.134-.625-.016.471-.025.706-.04,1.179.434-.28.65-.419,1.086-.694.023.468.036.7.061,1.172l1.008-.776c.1.459.143.688.24,1.147.288-.386.431-.577.719-.96l.812.857c.031-.464.047-.7.078-1.158.434.25.652.375,1.088.624-.044-.457-.065-.688-.107-1.147.462.215.692.321,1.154.534-.079-.453-.12-.68-.2-1.133l1.192.47c-.11-.447-.165-.671-.275-1.117.492.162.737.241,1.229.4l-.378-1.089,1.276.277-.761-.753c.283-.321.425-.479.708-.8-.507.137-.761.205-1.266.344.121-.447.184-.669.306-1.116-.485.187-.727.28-1.21.468.082-.456.123-.683.205-1.137-.47.21-.706.316-1.176.529.051-.461.078-.691.129-1.15-.456.235-.683.352-1.139.588.014-.464.022-.7.036-1.159l-1.07.675c-.058-.464-.087-.7-.145-1.159-.308.359-.464.54-.772.9-.33-.349-.495-.524-.823-.874-.033.468-.05.7-.084,1.172-.445-.254-.667-.381-1.112-.638.04.47.061.7.1,1.175-.473-.215-.708-.324-1.179-.541l.2,1.17c-.489-.185-.733-.277-1.22-.464.117.464.176.694.294,1.158-.5-.148-.756-.221-1.26-.37.173.45.258.674.429,1.123l-1.312-.184c.324.353.484.529.807.879" data-name="Path 4973" id="Path_4973"></path>
          <path fill="#27853b" transform="translate(101.028 3.606)" d="M182.557,10.993c-.324.294-.485.442-.809.739.51-.135.767-.2,1.277-.336-.114.464-.171.7-.285,1.161l1.187-.541c-.054.471-.082.706-.137,1.178.453-.25.68-.377,1.134-.625-.016.471-.025.706-.04,1.179.434-.28.652-.419,1.086-.694.023.468.036.7.061,1.172l1.008-.776c.1.459.143.688.24,1.147.288-.386.431-.577.719-.96l.812.857c.031-.464.047-.7.078-1.158.434.25.652.375,1.088.624-.044-.457-.065-.688-.107-1.147.462.215.692.321,1.154.534-.079-.453-.12-.68-.2-1.133l1.192.47c-.11-.447-.165-.671-.275-1.117.492.162.737.241,1.229.4l-.378-1.089,1.276.277-.761-.753c.283-.321.425-.479.708-.8-.507.137-.761.205-1.266.344l.306-1.116c-.485.187-.727.28-1.21.468.082-.456.123-.683.205-1.137-.47.21-.706.316-1.176.529.051-.461.078-.691.129-1.15-.456.235-.683.352-1.139.588.014-.464.022-.7.036-1.159l-1.07.675c-.058-.464-.087-.7-.145-1.159-.308.359-.464.54-.772.9-.33-.349-.493-.524-.823-.874-.033.468-.05.7-.084,1.172-.445-.254-.667-.381-1.112-.638.04.47.061.7.1,1.175-.473-.215-.708-.324-1.179-.541l.2,1.17c-.489-.185-.733-.277-1.22-.464.118.464.176.694.294,1.158-.5-.148-.756-.221-1.26-.37.173.45.258.674.429,1.123l-1.312-.184.808.879" data-name="Path 4974" id="Path_4974"></path>
          <path fill="#27853b" transform="translate(107.699 3.606)" d="M194.558,10.993c-.324.294-.485.442-.809.739.51-.135.767-.2,1.277-.336-.114.464-.171.7-.285,1.161.475-.218.713-.325,1.187-.541-.054.471-.082.706-.137,1.178.453-.25.68-.377,1.134-.625-.016.471-.025.706-.04,1.179.434-.28.652-.419,1.086-.694.023.468.036.7.061,1.172l1.008-.776c.1.459.143.688.24,1.147.288-.386.431-.577.719-.96l.812.857.078-1.158c.434.25.652.375,1.088.624-.044-.457-.065-.688-.107-1.147.462.215.692.321,1.154.534-.079-.453-.12-.68-.2-1.133l1.192.47c-.11-.447-.165-.671-.275-1.117.492.162.737.241,1.229.4l-.378-1.089,1.276.277-.761-.753c.283-.321.425-.479.708-.8-.507.137-.761.205-1.266.344.121-.447.184-.669.307-1.116-.485.187-.727.28-1.21.468.082-.456.123-.683.205-1.137-.47.21-.706.316-1.176.529.051-.461.078-.691.129-1.15-.456.235-.683.352-1.139.588.014-.464.022-.7.036-1.159l-1.07.675c-.058-.464-.087-.7-.145-1.159-.308.359-.464.54-.772.9-.33-.349-.493-.524-.823-.874-.033.468-.05.7-.084,1.172-.445-.254-.667-.381-1.112-.638.04.47.061.7.1,1.175-.473-.215-.708-.324-1.179-.541l.2,1.17c-.489-.185-.733-.277-1.22-.464.118.464.176.694.294,1.158-.5-.148-.756-.221-1.26-.37.173.45.258.674.429,1.123l-1.312-.184c.324.353.484.529.807.879" data-name="Path 4975" id="Path_4975"></path>
          <path fill="#27853b" transform="translate(114.369 3.889)" d="M206.559,11.5c-.324.294-.485.442-.809.739.51-.135.767-.2,1.277-.336-.114.464-.171.7-.285,1.161.475-.218.713-.325,1.187-.541-.054.471-.082.706-.137,1.178.453-.25.68-.377,1.134-.625-.016.471-.025.706-.04,1.179.434-.28.652-.419,1.086-.694.023.468.036.7.061,1.172l1.008-.776c.1.459.143.688.24,1.147.288-.386.431-.577.719-.96l.812.857c.031-.464.047-.7.078-1.158.434.25.652.375,1.088.624-.044-.457-.065-.688-.107-1.147.462.215.692.321,1.154.534-.079-.453-.12-.68-.2-1.133l1.192.47c-.11-.447-.165-.671-.275-1.117.492.162.737.241,1.229.4l-.378-1.089c.51.112.766.166,1.276.277l-.761-.753c.283-.321.425-.479.708-.8-.507.137-.761.205-1.266.344.121-.447.184-.669.307-1.116-.485.187-.727.28-1.21.468.082-.456.123-.683.205-1.137-.47.21-.706.316-1.176.529.051-.461.078-.691.129-1.15-.456.235-.683.352-1.139.588.014-.464.022-.7.036-1.159l-1.07.675c-.058-.464-.087-.7-.145-1.159-.308.359-.464.54-.772.9-.33-.349-.493-.524-.823-.874-.033.468-.05.7-.084,1.172-.445-.254-.667-.381-1.112-.638.04.47.061.7.1,1.175-.473-.215-.708-.324-1.179-.541l.2,1.17c-.489-.185-.733-.277-1.22-.464.117.464.176.694.294,1.158-.5-.148-.756-.221-1.26-.37.173.45.258.674.429,1.122-.524-.072-.787-.109-1.312-.182.324.353.484.529.807.879" data-name="Path 4976" id="Path_4976"></path>
          <path fill="#27853b" transform="translate(121.04 3.606)" d="M218.559,10.993c-.324.294-.485.442-.809.739.51-.135.767-.2,1.277-.336-.114.464-.171.7-.285,1.161.475-.218.713-.325,1.187-.541-.054.471-.082.706-.137,1.178.453-.25.68-.377,1.134-.625-.016.471-.025.706-.04,1.179.434-.28.652-.419,1.086-.694.023.468.036.7.061,1.172l1.008-.776c.1.459.143.688.24,1.147.288-.386.431-.577.719-.96l.812.857.078-1.158c.434.25.652.375,1.088.624-.044-.457-.065-.688-.107-1.147.462.215.692.321,1.154.534-.079-.453-.12-.68-.2-1.133l1.192.47c-.11-.447-.165-.671-.275-1.117.492.162.738.241,1.229.4l-.378-1.089,1.276.277-.761-.753c.283-.321.425-.479.708-.8-.507.137-.761.205-1.266.344.121-.447.184-.669.306-1.116-.485.187-.727.28-1.21.468.082-.456.123-.683.205-1.137-.47.21-.706.316-1.176.529.051-.461.078-.691.129-1.15-.456.235-.683.352-1.139.588.014-.464.022-.7.036-1.159l-1.07.675c-.058-.464-.087-.7-.145-1.159-.308.359-.464.54-.772.9-.33-.349-.495-.524-.823-.874-.033.468-.05.7-.084,1.172-.445-.254-.667-.381-1.112-.638.04.47.061.7.1,1.175-.473-.215-.708-.324-1.179-.541l.2,1.17c-.489-.185-.733-.277-1.22-.464.118.464.176.694.294,1.158-.5-.148-.756-.221-1.26-.37.173.45.258.674.429,1.123l-1.312-.184c.324.353.484.529.807.879" data-name="Path 4977" id="Path_4977"></path>
          <path fill="#27853b" transform="translate(127.064 3.606)" d="M229.4,10.993c-.324.294-.485.442-.809.739.51-.135.767-.2,1.277-.336-.114.464-.171.7-.285,1.161.475-.218.713-.325,1.187-.541-.054.471-.082.706-.137,1.178.453-.25.68-.377,1.134-.625-.016.471-.025.706-.04,1.179.434-.28.65-.419,1.086-.694.023.468.036.7.061,1.172l1.008-.776c.1.459.143.688.24,1.147.288-.386.431-.577.719-.96l.812.857.078-1.158c.434.25.652.375,1.088.624-.044-.457-.065-.688-.107-1.147.462.215.692.321,1.154.534-.079-.453-.12-.68-.2-1.133l1.192.47c-.11-.447-.165-.671-.275-1.117.492.162.737.241,1.229.4l-.378-1.089,1.276.277-.761-.753c.283-.321.425-.479.708-.8-.507.137-.761.205-1.266.344.121-.447.184-.669.307-1.116-.485.187-.727.28-1.21.468.082-.456.123-.683.205-1.137-.47.21-.706.316-1.176.529.051-.461.078-.691.129-1.15-.456.235-.683.352-1.139.588.014-.464.022-.7.036-1.159l-1.07.675c-.058-.464-.087-.7-.145-1.159-.308.359-.464.54-.772.9-.33-.349-.495-.524-.823-.874-.033.468-.05.7-.084,1.172-.445-.254-.667-.381-1.112-.638.04.47.061.7.1,1.175-.473-.215-.708-.324-1.179-.541l.2,1.17c-.489-.185-.733-.277-1.22-.464.117.464.176.694.294,1.158-.5-.148-.756-.221-1.26-.37.173.45.258.674.429,1.123l-1.312-.184c.324.353.484.529.807.879" data-name="Path 4978" id="Path_4978"></path>
          <path fill="#27853b" transform="translate(133.735 3.606)" d="M241.4,10.993c-.324.294-.485.442-.809.739.51-.135.767-.2,1.277-.336-.114.464-.171.7-.285,1.161l1.187-.541c-.054.471-.082.706-.137,1.178.453-.25.68-.377,1.134-.625-.016.471-.025.706-.04,1.179.434-.28.652-.419,1.086-.694.023.468.036.7.061,1.172l1.008-.776c.1.459.143.688.24,1.147.288-.386.431-.577.719-.96l.812.857c.031-.464.047-.7.078-1.158.434.25.652.375,1.088.624-.044-.457-.065-.688-.107-1.147.462.215.692.321,1.154.534-.079-.453-.12-.68-.2-1.133l1.192.47c-.11-.447-.165-.671-.275-1.117.492.162.737.241,1.229.4l-.378-1.089,1.276.277-.761-.753c.283-.321.425-.479.708-.8-.507.137-.761.205-1.266.344l.307-1.116c-.485.187-.727.28-1.21.468.082-.456.123-.683.205-1.137-.47.21-.706.316-1.176.529.051-.461.078-.691.129-1.15-.456.235-.683.352-1.139.588.014-.464.022-.7.036-1.159l-1.07.675c-.058-.464-.087-.7-.145-1.159-.308.359-.464.54-.772.9-.33-.349-.493-.524-.823-.874-.033.468-.05.7-.084,1.172-.445-.254-.667-.381-1.112-.638.04.47.061.7.1,1.175-.473-.215-.708-.324-1.179-.541l.2,1.17c-.489-.185-.733-.277-1.22-.464.118.464.177.694.294,1.158-.5-.148-.756-.221-1.26-.37.173.45.258.674.429,1.123l-1.312-.184c.324.353.484.529.807.879" data-name="Path 4979" id="Path_4979"></path>
          <path fill="#27853b" transform="translate(140.405 3.889)" d="M253.4,11.5c-.324.294-.485.442-.809.739.51-.135.767-.2,1.277-.336-.114.464-.171.7-.285,1.161l1.187-.541c-.054.471-.082.706-.137,1.178.453-.25.68-.377,1.134-.625-.016.471-.025.706-.04,1.179.434-.28.652-.419,1.086-.694.023.468.036.7.061,1.172l1.008-.776c.1.459.143.688.24,1.147.288-.386.431-.577.719-.96.325.344.487.515.812.857l.078-1.158c.434.25.652.375,1.088.624-.044-.457-.065-.688-.107-1.147.462.215.692.321,1.154.534-.079-.453-.12-.68-.2-1.133l1.192.47c-.11-.447-.165-.671-.275-1.117.492.162.738.241,1.229.4l-.378-1.089c.51.112.765.166,1.276.277l-.761-.753c.283-.321.425-.479.708-.8-.507.137-.761.205-1.266.344.121-.447.184-.669.307-1.116-.485.187-.727.28-1.211.468.082-.456.123-.683.205-1.137-.47.21-.706.316-1.176.529.051-.461.078-.691.129-1.15-.456.235-.683.352-1.139.588.014-.464.022-.7.036-1.159l-1.07.675c-.058-.464-.087-.7-.145-1.159-.308.359-.464.54-.772.9-.33-.349-.493-.524-.823-.874-.033.468-.05.7-.084,1.172-.445-.254-.667-.381-1.112-.638.04.47.061.7.1,1.175-.473-.215-.708-.324-1.179-.541l.2,1.17c-.489-.185-.733-.277-1.22-.464.118.464.176.694.294,1.158-.5-.148-.756-.221-1.26-.37.173.45.258.674.429,1.122-.524-.072-.787-.109-1.312-.182.324.353.484.529.807.879" data-name="Path 4980" id="Path_4980"></path>
          <path fill="#27853b" transform="translate(147.076 3.606)" d="M265.4,10.993c-.324.294-.485.442-.809.739.51-.135.767-.2,1.277-.336-.114.464-.171.7-.285,1.161.475-.218.713-.325,1.187-.541-.054.471-.082.706-.137,1.178.453-.25.68-.377,1.134-.625-.016.471-.025.706-.04,1.179.434-.28.652-.419,1.086-.694.023.468.036.7.061,1.172l1.008-.776c.1.459.143.688.24,1.147.288-.386.431-.577.719-.96l.812.857.078-1.158c.434.25.652.375,1.088.624-.044-.457-.065-.688-.107-1.147.462.215.692.321,1.154.534-.079-.453-.12-.68-.2-1.133l1.192.47c-.11-.447-.165-.671-.275-1.117.492.162.738.241,1.229.4l-.378-1.089,1.276.277-.761-.753c.283-.321.425-.479.708-.8-.507.137-.761.205-1.266.344.121-.447.184-.669.306-1.116-.485.187-.727.28-1.21.468.082-.456.123-.683.205-1.137-.47.21-.706.316-1.176.529.051-.461.078-.691.129-1.15-.456.235-.683.352-1.139.588.014-.464.022-.7.036-1.159l-1.07.675c-.058-.464-.087-.7-.145-1.159-.308.359-.464.54-.772.9-.33-.349-.493-.524-.823-.874-.033.468-.05.7-.084,1.172-.445-.254-.667-.381-1.112-.638.04.47.061.7.1,1.175-.473-.215-.708-.324-1.179-.541l.2,1.17c-.489-.185-.733-.277-1.22-.464.118.464.176.694.294,1.158-.5-.148-.756-.221-1.26-.37.173.45.258.674.429,1.123l-1.312-.184c.324.353.484.529.807.879" data-name="Path 4981" id="Path_4981"></path>
          <path fill="#27853b" transform="translate(153.1 3.606)" d="M276.235,10.993c-.324.294-.485.442-.809.739.51-.135.767-.2,1.277-.336-.114.464-.171.7-.285,1.161.475-.218.713-.325,1.187-.541-.054.471-.082.706-.137,1.178.453-.25.68-.377,1.134-.625-.016.471-.025.706-.04,1.179.434-.28.652-.419,1.086-.694.023.468.036.7.061,1.172l1.008-.776c.1.459.143.688.24,1.147.288-.386.431-.577.719-.96l.812.857c.031-.464.047-.7.078-1.158.434.25.652.375,1.087.624-.044-.457-.065-.688-.107-1.147.462.215.692.321,1.154.534-.079-.453-.12-.68-.2-1.133l1.192.47c-.11-.447-.165-.671-.275-1.117.492.162.737.241,1.229.4l-.378-1.089,1.276.277-.761-.753c.283-.321.425-.479.708-.8-.507.137-.761.205-1.266.344.121-.447.184-.669.306-1.116-.485.187-.727.28-1.21.468.082-.456.123-.683.205-1.137-.47.21-.706.316-1.176.529.051-.461.078-.691.129-1.15-.456.235-.683.352-1.139.588.014-.464.022-.7.036-1.159l-1.07.675c-.058-.464-.087-.7-.145-1.159-.308.359-.464.54-.772.9-.33-.349-.495-.524-.823-.874-.033.468-.05.7-.084,1.172-.445-.254-.667-.381-1.112-.638.04.47.061.7.1,1.175-.473-.215-.708-.324-1.179-.541l.2,1.17c-.489-.185-.733-.277-1.22-.464.118.464.176.694.294,1.158-.5-.148-.756-.221-1.26-.37.173.45.258.674.429,1.123l-1.312-.184c.324.353.484.529.808.879" data-name="Path 4982" id="Path_4982"></path>
          <path fill="#27853b" transform="translate(159.771 3.606)" d="M288.236,10.993c-.324.294-.485.442-.809.739.51-.135.767-.2,1.277-.336-.114.464-.171.7-.285,1.161.475-.218.713-.325,1.187-.541-.054.471-.082.706-.137,1.178.453-.25.68-.377,1.134-.625-.016.471-.025.706-.04,1.179.434-.28.65-.419,1.086-.694.023.468.036.7.061,1.172l1.008-.776c.1.459.143.688.24,1.147.288-.386.431-.577.719-.96l.812.857c.031-.464.047-.7.078-1.158.434.25.652.375,1.088.624-.044-.457-.065-.688-.107-1.147.462.215.692.321,1.154.534-.079-.453-.12-.68-.2-1.133l1.192.47c-.111-.447-.165-.671-.275-1.117.492.162.738.241,1.229.4l-.378-1.089,1.276.277-.761-.753c.283-.321.425-.479.708-.8-.507.137-.761.205-1.266.344.121-.447.184-.669.306-1.116-.485.187-.727.28-1.21.468.082-.456.123-.683.205-1.137-.47.21-.706.316-1.176.529.051-.461.078-.691.129-1.15-.456.235-.683.352-1.139.588.014-.464.022-.7.036-1.159l-1.07.675c-.058-.464-.087-.7-.145-1.159-.308.359-.464.54-.772.9-.33-.349-.495-.524-.823-.874-.033.468-.05.7-.084,1.172-.445-.254-.668-.381-1.112-.638.04.47.061.7.1,1.175-.473-.215-.708-.324-1.179-.541l.2,1.17c-.489-.185-.733-.277-1.22-.464.118.464.176.694.294,1.158-.5-.148-.756-.221-1.26-.37.173.45.258.674.429,1.123l-1.312-.184c.324.353.484.529.807.879" data-name="Path 4983" id="Path_4983"></path>
          <path fill="#27853b" transform="translate(166.441 3.889)" d="M300.236,11.5c-.324.294-.485.442-.809.739.51-.135.767-.2,1.277-.336-.114.464-.171.7-.285,1.161.474-.218.713-.325,1.187-.541-.054.471-.082.706-.137,1.178.453-.25.68-.377,1.134-.625-.016.471-.025.706-.04,1.179.434-.28.65-.419,1.086-.694.023.468.036.7.061,1.172l1.008-.776c.1.459.143.688.24,1.147.288-.386.431-.577.719-.96.325.344.487.515.812.857l.078-1.158c.434.25.652.375,1.088.624-.043-.457-.065-.688-.107-1.147.462.215.692.321,1.154.534-.079-.453-.12-.68-.2-1.133l1.192.47c-.11-.447-.165-.671-.275-1.117.492.162.737.241,1.229.4l-.378-1.089c.51.112.766.166,1.276.277l-.761-.753c.283-.321.425-.479.708-.8-.507.137-.761.205-1.266.344.121-.447.184-.669.307-1.116-.485.187-.727.28-1.211.468.082-.456.123-.683.205-1.137-.47.21-.706.316-1.176.529.051-.461.078-.691.129-1.15-.456.235-.683.352-1.139.588.014-.464.022-.7.036-1.159l-1.07.675c-.058-.464-.087-.7-.145-1.159-.308.359-.464.54-.772.9-.33-.349-.495-.524-.823-.874-.033.468-.05.7-.084,1.172-.445-.254-.668-.381-1.112-.638.04.47.061.7.1,1.175-.473-.215-.708-.324-1.179-.541l.2,1.17c-.488-.185-.733-.277-1.22-.464.118.464.176.694.294,1.158-.5-.148-.756-.221-1.26-.37.173.45.258.674.429,1.122-.524-.072-.787-.109-1.312-.182.324.353.484.529.807.879" data-name="Path 4984" id="Path_4984"></path>
          <path fill="#27853b" transform="translate(173.112 3.606)" d="M312.237,10.993c-.324.294-.485.442-.809.739.51-.135.767-.2,1.277-.336-.114.464-.171.7-.285,1.161.475-.218.713-.325,1.187-.541-.054.471-.083.706-.137,1.178.453-.25.68-.377,1.134-.625-.016.471-.025.706-.04,1.179.434-.28.652-.419,1.086-.694.023.468.036.7.061,1.172l1.008-.776c.1.459.143.688.24,1.147.288-.386.431-.577.719-.96l.812.857c.031-.464.047-.7.078-1.158.434.25.652.375,1.088.624-.044-.457-.065-.688-.107-1.147.462.215.692.321,1.154.534-.079-.453-.12-.68-.2-1.133l1.192.47c-.11-.447-.165-.671-.275-1.117.492.162.737.241,1.229.4-.151-.436-.227-.653-.378-1.089l1.276.277-.761-.753c.283-.321.425-.479.708-.8-.507.137-.761.205-1.267.344l.307-1.116c-.485.187-.727.28-1.211.468.082-.456.123-.683.205-1.137-.47.21-.706.316-1.176.529.051-.461.078-.691.129-1.15-.456.235-.683.352-1.139.588.014-.464.022-.7.036-1.159l-1.07.675c-.058-.464-.087-.7-.145-1.159-.308.359-.464.54-.772.9-.33-.349-.493-.524-.823-.874-.033.468-.05.7-.084,1.172-.445-.254-.667-.381-1.112-.638.04.47.061.7.1,1.175-.471-.215-.708-.324-1.179-.541l.2,1.17c-.489-.185-.733-.277-1.22-.464.118.464.177.694.294,1.158-.5-.148-.756-.221-1.26-.37.173.45.258.674.429,1.123l-1.312-.184.808.879" data-name="Path 4985" id="Path_4985"></path>
          <path fill="#27853b" transform="translate(179.136 3.606)" d="M323.074,10.993c-.324.294-.485.442-.809.739.51-.135.767-.2,1.277-.336-.114.464-.171.7-.285,1.161.474-.218.713-.325,1.187-.541-.054.471-.082.706-.137,1.178.453-.25.68-.377,1.134-.625-.016.471-.025.706-.04,1.179.434-.28.652-.419,1.086-.694.023.468.036.7.061,1.172l1.008-.776c.1.459.143.688.24,1.147.288-.386.431-.577.719-.96l.812.857.078-1.158c.434.25.652.375,1.088.624-.044-.457-.065-.688-.107-1.147.462.215.692.321,1.154.534-.079-.453-.12-.68-.2-1.133l1.192.47c-.11-.447-.165-.671-.275-1.117.492.162.737.241,1.229.4l-.378-1.089,1.276.277-.761-.753c.283-.321.425-.479.708-.8-.507.137-.761.205-1.266.344.123-.447.184-.669.307-1.116-.485.187-.727.28-1.211.468.082-.456.123-.683.205-1.137-.47.21-.706.316-1.176.529.051-.461.078-.691.129-1.15-.456.235-.683.352-1.139.588.014-.464.022-.7.036-1.159l-1.07.675c-.058-.464-.087-.7-.145-1.159-.308.359-.464.54-.772.9-.33-.349-.493-.524-.823-.874-.033.468-.05.7-.084,1.172-.445-.254-.668-.381-1.112-.638.04.47.061.7.1,1.175-.473-.215-.708-.324-1.179-.541l.2,1.17c-.488-.185-.733-.277-1.22-.464.118.464.176.694.294,1.158-.5-.148-.756-.221-1.26-.37.173.45.258.674.429,1.123l-1.312-.184c.324.353.484.529.807.879" data-name="Path 4986" id="Path_4986"></path>
          <path fill="#27853b" transform="translate(185.807 3.606)" d="M335.073,10.993c-.324.294-.485.442-.807.739l1.276-.336c-.114.464-.17.7-.283,1.161.473-.218.711-.325,1.187-.541-.054.471-.084.706-.138,1.178l1.134-.625c-.016.471-.023.706-.04,1.179.434-.28.653-.419,1.086-.694.025.468.037.7.061,1.172.4-.311.607-.467,1.01-.776.095.459.142.688.238,1.147.288-.386.433-.577.72-.96.324.344.485.515.812.857.03-.464.047-.7.076-1.158.434.25.652.375,1.088.624-.044-.457-.064-.688-.107-1.147.462.215.694.321,1.156.534-.079-.453-.12-.68-.2-1.133l1.193.47c-.112-.447-.166-.671-.275-1.117.49.162.736.241,1.228.4l-.378-1.089,1.277.277-.762-.753c.283-.321.426-.479.708-.8-.507.137-.761.205-1.266.344.121-.447.184-.669.308-1.116-.487.187-.728.28-1.212.468.082-.456.123-.683.207-1.137-.47.21-.708.316-1.178.529.051-.461.078-.691.131-1.15-.456.235-.685.352-1.14.588.014-.464.022-.7.036-1.159-.428.269-.643.4-1.069.675-.059-.464-.087-.7-.146-1.159-.308.359-.464.54-.772.9l-.823-.874c-.033.468-.048.7-.082,1.172-.447-.254-.669-.381-1.112-.638.039.47.059.7.1,1.175-.471-.215-.708-.324-1.179-.541l.2,1.17c-.489-.185-.733-.277-1.22-.464.118.464.177.694.294,1.158l-1.26-.37c.173.45.258.674.429,1.123l-1.312-.184c.324.353.484.529.807.879" data-name="Path 4987" id="Path_4987"></path>
          <path fill="#27853b" transform="translate(192.478 3.889)" d="M347.075,11.5c-.324.294-.485.442-.809.739.51-.135.767-.2,1.277-.336-.114.464-.171.7-.285,1.161.475-.218.713-.325,1.187-.541-.054.471-.082.706-.137,1.178.453-.25.68-.377,1.134-.625-.016.471-.025.706-.04,1.179.434-.28.652-.419,1.086-.694.023.468.036.7.061,1.172l1.008-.776c.1.459.143.688.24,1.147.288-.386.431-.577.719-.96l.812.857.078-1.158c.434.25.652.375,1.088.624-.044-.457-.064-.688-.107-1.147.462.215.692.321,1.154.534-.079-.453-.12-.68-.2-1.133l1.192.47c-.11-.447-.165-.671-.275-1.117.492.162.738.241,1.229.4l-.378-1.089c.51.112.765.166,1.276.277l-.761-.753c.283-.321.425-.479.708-.8-.507.137-.761.205-1.266.344.121-.447.184-.669.306-1.116-.485.187-.727.28-1.21.468.082-.456.123-.683.205-1.137-.47.21-.706.316-1.176.529.051-.461.078-.691.129-1.15-.456.235-.683.352-1.139.588.014-.464.022-.7.036-1.159l-1.07.675c-.058-.464-.087-.7-.145-1.159-.308.359-.464.54-.772.9-.33-.349-.493-.524-.823-.874-.033.468-.05.7-.084,1.172-.445-.254-.667-.381-1.112-.638.04.47.061.7.1,1.175-.473-.215-.708-.324-1.179-.541l.2,1.17c-.489-.185-.733-.277-1.22-.464.118.464.176.694.294,1.158-.5-.148-.756-.221-1.26-.37.173.45.258.674.429,1.122-.524-.072-.787-.109-1.312-.182.324.353.484.529.807.879" data-name="Path 4988" id="Path_4988"></path>
          <path fill="#27853b" transform="translate(199.149 3.606)" d="M359.076,10.993c-.324.294-.485.442-.809.739.51-.135.767-.2,1.277-.336-.114.464-.171.7-.285,1.161.474-.218.713-.325,1.187-.541-.054.471-.082.706-.137,1.178.453-.25.68-.377,1.134-.625-.016.471-.025.706-.04,1.179.434-.28.65-.419,1.086-.694.023.468.036.7.061,1.172l1.008-.776c.1.459.143.688.24,1.147.288-.386.431-.577.719-.96l.812.857c.031-.464.047-.7.078-1.158.434.25.652.375,1.088.624-.043-.457-.065-.688-.107-1.147.462.215.692.321,1.154.534-.079-.453-.12-.68-.2-1.133l1.192.47c-.11-.447-.165-.671-.275-1.117.492.162.737.241,1.229.4l-.378-1.089,1.276.277-.761-.753c.283-.321.425-.479.708-.8-.507.137-.761.205-1.266.344.121-.447.184-.669.306-1.116-.485.187-.727.28-1.21.468.082-.456.123-.683.205-1.137-.47.21-.706.316-1.176.529.051-.461.078-.691.129-1.15-.456.235-.683.352-1.139.588.014-.464.022-.7.036-1.159l-1.07.675c-.058-.464-.087-.7-.145-1.159-.308.359-.464.54-.772.9-.33-.349-.495-.524-.823-.874-.033.468-.05.7-.084,1.172-.445-.254-.667-.381-1.112-.638.04.47.061.7.1,1.175-.473-.215-.708-.324-1.179-.541l.2,1.17c-.489-.185-.733-.277-1.22-.464.117.464.176.694.294,1.158-.5-.148-.756-.221-1.26-.37.173.45.258.674.429,1.123l-1.312-.184c.324.353.484.529.807.879" data-name="Path 4989" id="Path_4989"></path>
          <path fill="#27853b" transform="translate(205.172 3.606)" d="M369.913,10.993c-.324.294-.485.442-.809.739.51-.135.767-.2,1.277-.336-.114.464-.171.7-.285,1.161l1.187-.541c-.054.471-.082.706-.137,1.178.453-.25.68-.377,1.134-.625-.016.471-.025.706-.04,1.179.434-.28.652-.419,1.086-.694.023.468.036.7.061,1.172l1.008-.776c.1.459.143.688.24,1.147.288-.386.431-.577.719-.96l.812.857.078-1.158c.434.25.652.375,1.088.624-.044-.457-.065-.688-.107-1.147.462.215.692.321,1.154.534-.079-.453-.12-.68-.2-1.133l1.192.47c-.111-.447-.165-.671-.275-1.117.492.162.737.241,1.229.4l-.378-1.089,1.276.277-.761-.753c.283-.321.425-.479.708-.8-.507.137-.761.205-1.266.344l.306-1.116c-.485.187-.727.28-1.211.468.083-.456.123-.683.205-1.137-.47.21-.706.316-1.176.529.051-.461.078-.691.129-1.15-.456.235-.683.352-1.139.588.014-.464.022-.7.036-1.159l-1.07.675c-.057-.464-.087-.7-.145-1.159-.308.359-.464.54-.772.9-.33-.349-.493-.524-.823-.874-.033.468-.05.7-.084,1.172-.445-.254-.667-.381-1.112-.638.04.47.061.7.1,1.175-.471-.215-.708-.324-1.179-.541l.2,1.17c-.489-.185-.733-.277-1.22-.464.118.464.177.694.294,1.158-.5-.148-.756-.221-1.26-.37.173.45.258.674.429,1.123l-1.312-.184.807.879" data-name="Path 4990" id="Path_4990"></path>
          <path fill="#27853b" transform="translate(211.843 3.606)" d="M381.913,10.993c-.324.294-.485.442-.809.739.51-.135.767-.2,1.277-.336-.114.464-.171.7-.285,1.161.475-.218.713-.325,1.187-.541-.054.471-.082.706-.137,1.178.453-.25.68-.377,1.134-.625-.016.471-.025.706-.04,1.179.434-.28.652-.419,1.086-.694.023.468.036.7.061,1.172l1.008-.776c.1.459.143.688.24,1.147.288-.386.431-.577.719-.96l.812.857.078-1.158c.434.25.652.375,1.088.624-.044-.457-.065-.688-.107-1.147.462.215.692.321,1.154.534-.079-.453-.12-.68-.2-1.133l1.192.47c-.111-.447-.165-.671-.275-1.117.492.162.737.241,1.229.4l-.378-1.089,1.276.277-.761-.753c.283-.321.425-.479.708-.8-.507.137-.761.205-1.266.344.121-.447.184-.669.307-1.116-.485.187-.727.28-1.21.468.082-.456.123-.683.205-1.137-.47.21-.706.316-1.176.529.051-.461.078-.691.129-1.15-.456.235-.683.352-1.139.588.014-.464.022-.7.036-1.159l-1.07.675c-.058-.464-.087-.7-.145-1.159-.308.359-.464.54-.772.9-.33-.349-.493-.524-.823-.874-.033.468-.05.7-.084,1.172-.445-.254-.667-.381-1.112-.638.04.47.061.7.1,1.175-.473-.215-.708-.324-1.179-.541l.2,1.17c-.489-.185-.733-.277-1.22-.464.118.464.176.694.294,1.158-.5-.148-.756-.221-1.26-.37.173.45.258.674.429,1.123l-1.312-.184c.324.353.484.529.807.879" data-name="Path 4991" id="Path_4991"></path>
          <path fill="#27853b" transform="translate(218.514 3.889)" d="M393.914,11.5c-.324.294-.485.442-.809.739.51-.135.767-.2,1.277-.336-.114.464-.171.7-.285,1.161.475-.218.713-.325,1.187-.541-.054.471-.082.706-.137,1.178.453-.25.68-.377,1.134-.625-.016.471-.025.706-.04,1.179.434-.28.652-.419,1.086-.694.023.468.036.7.061,1.172l1.008-.776c.1.459.143.688.24,1.147.288-.386.431-.577.719-.96l.812.857.078-1.158c.434.25.652.375,1.088.624-.044-.457-.065-.688-.107-1.147.462.215.692.321,1.154.534-.079-.453-.12-.68-.2-1.133l1.192.47c-.111-.447-.165-.671-.275-1.117.492.162.737.241,1.229.4-.151-.436-.227-.653-.378-1.089.51.112.765.166,1.276.277l-.761-.753c.283-.321.425-.479.708-.8-.507.137-.761.205-1.266.344l.307-1.116c-.485.187-.727.28-1.211.468.082-.456.123-.683.205-1.137-.47.21-.706.316-1.176.529.051-.461.078-.691.129-1.15-.456.235-.683.352-1.139.588.014-.464.022-.7.036-1.159l-1.07.675c-.058-.464-.087-.7-.145-1.159-.308.359-.464.54-.772.9-.33-.349-.493-.524-.823-.874-.033.468-.05.7-.084,1.172-.445-.254-.668-.381-1.112-.638.04.47.061.7.1,1.175-.473-.215-.708-.324-1.179-.541l.2,1.17c-.489-.185-.733-.277-1.22-.464.118.464.176.694.294,1.158-.5-.148-.756-.221-1.26-.37.173.45.258.674.429,1.122-.524-.072-.787-.109-1.312-.182l.808.879" data-name="Path 4992" id="Path_4992"></path>
          <path fill="#27853b" transform="translate(225.185 3.606)" d="M405.915,10.993c-.324.294-.485.442-.809.739.51-.135.767-.2,1.277-.336-.114.464-.171.7-.285,1.161.475-.218.713-.325,1.187-.541-.054.471-.082.706-.137,1.178.453-.25.68-.377,1.134-.625-.016.471-.025.706-.04,1.179.434-.28.652-.419,1.086-.694.023.468.036.7.061,1.172l1.008-.776c.1.459.143.688.24,1.147.288-.386.431-.577.719-.96l.812.857.078-1.158c.434.25.652.375,1.088.624-.044-.457-.065-.688-.107-1.147.462.215.692.321,1.154.534-.079-.453-.12-.68-.2-1.133l1.192.47c-.11-.447-.165-.671-.275-1.117.492.162.738.241,1.229.4-.151-.436-.227-.653-.378-1.089l1.276.277-.761-.753c.283-.321.425-.479.708-.8-.507.137-.761.205-1.266.344.121-.447.184-.669.306-1.116-.485.187-.727.28-1.21.468.082-.456.123-.683.205-1.137-.47.21-.706.316-1.176.529.051-.461.078-.691.129-1.15-.456.235-.683.352-1.139.588.014-.464.022-.7.036-1.159l-1.07.675c-.058-.464-.087-.7-.145-1.159-.308.359-.464.54-.772.9-.33-.349-.493-.524-.823-.874-.033.468-.05.7-.084,1.172-.445-.254-.667-.381-1.112-.638.04.47.061.7.1,1.175-.473-.215-.708-.324-1.179-.541l.2,1.17c-.488-.185-.733-.277-1.22-.464.118.464.176.694.294,1.158-.5-.148-.756-.221-1.26-.37.173.45.258.674.429,1.123l-1.312-.184c.324.353.484.529.807.879" data-name="Path 4993" id="Path_4993"></path>
          <path fill="#27853b" transform="translate(231.209 3.606)" d="M416.752,10.993c-.324.294-.485.442-.809.739.51-.135.767-.2,1.277-.336-.114.464-.171.7-.285,1.161.475-.218.713-.325,1.187-.541-.054.471-.082.706-.137,1.178.453-.25.68-.377,1.134-.625-.016.471-.025.706-.04,1.179.434-.28.65-.419,1.086-.694.023.468.036.7.061,1.172l1.008-.776c.1.459.143.688.24,1.147.288-.386.431-.577.719-.96l.812.857c.031-.464.047-.7.078-1.158.434.25.652.375,1.087.624-.044-.457-.064-.688-.107-1.147.462.215.692.321,1.155.534-.079-.453-.12-.68-.2-1.133l1.192.47c-.11-.447-.165-.671-.275-1.117.492.162.737.241,1.229.4-.151-.436-.227-.653-.378-1.089l1.276.277L427.3,10.4c.283-.321.425-.479.708-.8-.507.137-.761.205-1.266.344.121-.447.184-.669.307-1.116-.485.187-.727.28-1.21.468.082-.456.123-.683.205-1.137-.47.21-.706.316-1.176.529.051-.461.078-.691.129-1.15-.456.235-.683.352-1.139.588.014-.464.022-.7.036-1.159l-1.07.675c-.058-.464-.087-.7-.145-1.159-.308.359-.464.54-.772.9-.33-.349-.493-.524-.823-.874-.033.468-.05.7-.084,1.172-.445-.254-.667-.381-1.112-.638.04.47.061.7.1,1.175-.473-.215-.708-.324-1.179-.541l.2,1.17c-.489-.185-.733-.277-1.22-.464.118.464.176.694.294,1.158-.5-.148-.756-.221-1.26-.37.173.45.258.674.429,1.123l-1.312-.184c.324.353.484.529.808.879" data-name="Path 4994" id="Path_4994"></path>
          <path fill="#27853b" transform="translate(237.879 3.606)" d="M428.752,10.993c-.324.294-.485.442-.809.739.51-.135.767-.2,1.277-.336-.114.464-.171.7-.285,1.161.474-.218.713-.325,1.187-.541-.054.471-.082.706-.137,1.178.453-.25.68-.377,1.134-.625-.016.471-.025.706-.04,1.179.434-.28.65-.419,1.086-.694.023.468.036.7.061,1.172l1.008-.776c.1.459.143.688.24,1.147.288-.386.431-.577.719-.96l.812.857c.031-.464.047-.7.078-1.158.434.25.652.375,1.087.624-.043-.457-.065-.688-.107-1.147.462.215.692.321,1.154.534-.079-.453-.12-.68-.2-1.133l1.192.47c-.11-.447-.165-.671-.275-1.117.492.162.737.241,1.229.4l-.378-1.089,1.276.277L439.3,10.4c.283-.321.425-.479.708-.8-.507.137-.761.205-1.266.344.121-.447.184-.669.306-1.116-.485.187-.727.28-1.21.468.082-.456.123-.683.205-1.137-.47.21-.706.316-1.176.529.051-.461.078-.691.129-1.15-.456.235-.683.352-1.139.588.014-.464.022-.7.036-1.159l-1.07.675c-.057-.464-.087-.7-.145-1.159-.308.359-.464.54-.772.9-.33-.349-.493-.524-.823-.874-.033.468-.05.7-.084,1.172-.445-.254-.667-.381-1.112-.638.04.47.061.7.1,1.175-.473-.215-.708-.324-1.179-.541l.2,1.17c-.489-.185-.733-.277-1.22-.464.118.464.176.694.294,1.158-.5-.148-.756-.221-1.26-.37.173.45.258.674.429,1.123l-1.312-.184c.324.353.484.529.807.879" data-name="Path 4995" id="Path_4995"></path>
          <path fill="#27853b" transform="translate(244.55 3.889)" d="M440.753,11.5c-.324.294-.485.442-.809.739.51-.135.767-.2,1.277-.336-.114.464-.171.7-.285,1.161.475-.218.713-.325,1.187-.541-.054.471-.082.706-.137,1.178.453-.25.68-.377,1.134-.625-.016.471-.025.706-.04,1.179.434-.28.65-.419,1.086-.694.023.468.036.7.061,1.172l1.008-.776c.1.459.143.688.24,1.147.288-.386.431-.577.719-.96l.812.857c.031-.464.047-.7.078-1.158.434.25.652.375,1.088.624-.044-.457-.065-.688-.107-1.147.462.215.692.321,1.154.534-.079-.453-.12-.68-.2-1.133l1.192.47c-.11-.447-.165-.671-.275-1.117.492.162.737.241,1.229.4l-.378-1.089c.51.112.765.166,1.276.277l-.761-.753c.283-.321.425-.479.708-.8-.507.137-.761.205-1.266.344.121-.447.184-.669.306-1.116-.485.187-.727.28-1.21.468.082-.456.123-.683.205-1.137-.47.21-.706.316-1.176.529.051-.461.078-.691.129-1.15-.456.235-.683.352-1.139.588.014-.464.022-.7.036-1.159l-1.07.675c-.058-.464-.087-.7-.145-1.159-.308.359-.464.54-.772.9-.33-.349-.495-.524-.823-.874-.033.468-.05.7-.084,1.172-.445-.254-.667-.381-1.112-.638.04.47.061.7.1,1.175-.473-.215-.708-.324-1.179-.541l.2,1.17c-.489-.185-.733-.277-1.22-.464.117.464.176.694.294,1.158-.5-.148-.756-.221-1.26-.37.173.45.258.674.429,1.122-.524-.072-.787-.109-1.312-.182.324.353.484.529.807.879" data-name="Path 4996" id="Path_4996"></path>
        </g>
      </g>
    </g>
    <g transform="translate(693.439 0)" data-name="Group 4824" id="Group_4824">
      <path fill="#ed9724" transform="translate(0 0)" d="M0,0V27.6H706.561V0Z" data-name="Path 4958" id="Path_4958-2"></path>
      <g data-name="Group 4822" id="Group_4822-2">
        <g clip-path="url(#clip-path)" data-name="Group 4821" id="Group_4821-2">
          <path fill="#27853b" transform="translate(3.554 3.606)" d="M7.2,10.993c-.324.294-.484.442-.809.739.51-.135.767-.2,1.277-.336-.114.464-.171.7-.285,1.161.475-.218.714-.325,1.187-.541-.053.471-.082.706-.135,1.178.451-.25.678-.377,1.134-.625-.017.471-.025.706-.04,1.179.433-.28.649-.419,1.086-.694.022.468.034.7.059,1.172.4-.311.605-.467,1.01-.776.095.459.142.688.238,1.147l.719-.96c.327.344.487.515.812.857.031-.464.047-.7.079-1.158.433.25.65.375,1.086.624-.044-.457-.065-.688-.107-1.147l1.154.534c-.079-.453-.118-.68-.2-1.133l1.193.47c-.112-.447-.166-.671-.275-1.117.492.162.736.241,1.228.4l-.378-1.089,1.276.277-.759-.753c.282-.321.423-.479.708-.8l-1.268.344L17.5,8.832c-.485.187-.727.28-1.21.468.082-.456.124-.683.205-1.137-.47.21-.706.316-1.176.529.053-.461.078-.691.129-1.15l-1.139.588c.016-.464.022-.7.036-1.159-.426.269-.643.4-1.069.675-.059-.464-.089-.7-.146-1.159-.308.359-.464.54-.772.9-.33-.349-.495-.524-.821-.874-.033.468-.051.7-.086,1.172-.443-.254-.666-.381-1.111-.638.04.47.059.7.1,1.175C9.968,8.007,9.733,7.9,9.26,7.68l.2,1.17c-.489-.185-.733-.277-1.22-.464.118.464.176.694.294,1.158l-1.26-.37c.173.45.26.674.429,1.123l-1.312-.184c.324.353.484.529.807.879" data-name="Path 4959" id="Path_4959-2"></path>
          <path fill="#27853b" transform="translate(10.225 3.889)" d="M19.2,11.5c-.324.294-.485.442-.809.739.51-.135.767-.2,1.277-.336-.114.464-.171.7-.285,1.161.475-.218.713-.325,1.187-.541-.054.471-.082.706-.137,1.178.453-.25.68-.377,1.134-.625-.016.471-.025.706-.04,1.179.434-.28.65-.419,1.086-.694.023.468.036.7.061,1.172l1.008-.776c.1.459.143.688.24,1.147.288-.386.431-.577.719-.96l.812.857.078-1.158c.434.25.652.375,1.088.624-.044-.457-.065-.688-.107-1.147.462.215.692.321,1.154.534-.079-.453-.12-.68-.2-1.133l1.192.47c-.11-.447-.165-.671-.275-1.117.492.162.737.241,1.229.4l-.378-1.089c.51.112.765.166,1.276.277l-.761-.753c.283-.321.425-.479.708-.8-.507.137-.761.205-1.266.344.121-.447.184-.669.307-1.116-.485.187-.727.28-1.21.468.082-.456.123-.683.205-1.137-.47.21-.706.316-1.176.529.051-.461.078-.691.129-1.15-.456.235-.683.352-1.139.588.014-.464.022-.7.036-1.159l-1.07.675c-.058-.464-.087-.7-.145-1.159-.308.359-.464.54-.772.9-.33-.349-.495-.524-.823-.874-.033.468-.05.7-.084,1.172-.445-.254-.667-.381-1.112-.638.04.47.061.7.1,1.175-.473-.215-.708-.324-1.179-.541l.2,1.17c-.489-.185-.733-.277-1.22-.464.118.464.176.694.294,1.158-.5-.148-.756-.221-1.26-.37.173.45.258.674.429,1.122-.524-.072-.787-.109-1.312-.182.324.353.484.529.807.879" data-name="Path 4960" id="Path_4960-2"></path>
          <path fill="#27853b" transform="translate(16.896 3.606)" d="M31.2,10.993c-.324.294-.485.442-.809.739.51-.135.767-.2,1.277-.336-.114.464-.171.7-.285,1.161.475-.218.713-.325,1.187-.541-.054.471-.082.706-.137,1.178.453-.25.68-.377,1.134-.625-.016.471-.025.706-.04,1.179.434-.28.65-.419,1.086-.694.023.468.036.7.061,1.172l1.008-.776c.1.459.143.688.24,1.147.288-.386.431-.577.719-.96l.812.857.078-1.158c.434.25.652.375,1.088.624-.044-.457-.065-.688-.107-1.147.462.215.692.321,1.154.534-.079-.453-.12-.68-.2-1.133l1.192.47c-.11-.447-.165-.671-.275-1.117.492.162.737.241,1.229.4l-.378-1.089,1.276.277-.761-.753c.283-.321.425-.479.708-.8-.507.137-.761.205-1.266.344.121-.447.184-.669.307-1.116-.485.187-.727.28-1.21.468.082-.456.123-.683.205-1.137-.47.21-.706.316-1.176.529.051-.461.078-.691.129-1.15-.456.235-.683.352-1.139.588.014-.464.022-.7.036-1.159l-1.07.675c-.058-.464-.087-.7-.145-1.159-.308.359-.464.54-.772.9-.33-.349-.495-.524-.823-.874-.033.468-.05.7-.084,1.172-.445-.254-.667-.381-1.112-.638.04.47.061.7.1,1.175-.473-.215-.708-.324-1.179-.541l.2,1.17c-.489-.185-.733-.277-1.22-.464.118.464.176.694.294,1.158-.5-.148-.756-.221-1.26-.37.173.45.258.674.429,1.123L30.4,10.114c.324.353.484.529.807.879" data-name="Path 4961" id="Path_4961-2"></path>
          <path fill="#27853b" transform="translate(22.919 3.606)" d="M42.041,10.993c-.324.294-.485.442-.809.739.51-.135.767-.2,1.277-.336-.114.464-.171.7-.285,1.161l1.187-.541c-.054.471-.082.706-.137,1.178.453-.25.68-.377,1.134-.625-.016.471-.025.706-.04,1.179.434-.28.652-.419,1.086-.694.023.468.036.7.061,1.172l1.008-.776c.1.459.143.688.24,1.147.288-.386.431-.577.719-.96l.812.857.078-1.158c.434.25.652.375,1.088.624-.044-.457-.065-.688-.107-1.147.462.215.692.321,1.154.534-.079-.453-.12-.68-.2-1.133l1.192.47c-.11-.447-.165-.671-.275-1.117.492.162.737.241,1.229.4l-.378-1.089,1.276.277L52.59,10.4c.283-.321.425-.479.708-.8-.507.137-.761.205-1.266.344l.307-1.116c-.485.187-.727.28-1.21.468.082-.456.123-.683.205-1.137-.47.21-.706.316-1.176.529.051-.461.078-.691.129-1.15-.456.235-.683.352-1.139.588.014-.464.022-.7.036-1.159l-1.07.675c-.058-.464-.087-.7-.145-1.159-.308.359-.464.54-.772.9-.33-.349-.493-.524-.823-.874-.033.468-.05.7-.084,1.172-.445-.254-.667-.381-1.112-.638.04.47.061.7.1,1.175-.473-.215-.708-.324-1.179-.541l.2,1.17c-.489-.185-.733-.277-1.22-.464.118.464.176.694.294,1.158-.5-.148-.756-.221-1.26-.37.173.45.258.674.429,1.123l-1.312-.184c.324.353.484.529.807.879" data-name="Path 4962" id="Path_4962-2"></path>
          <path fill="#27853b" transform="translate(29.59 3.606)" d="M54.041,10.993c-.324.294-.485.442-.809.739.51-.135.767-.2,1.277-.336-.114.464-.171.7-.285,1.161.475-.218.713-.325,1.187-.541-.054.471-.082.706-.137,1.178.453-.25.68-.377,1.134-.625-.016.471-.025.706-.04,1.179.434-.28.652-.419,1.086-.694.023.468.036.7.061,1.172l1.008-.776c.1.459.143.688.24,1.147.288-.386.431-.577.719-.96l.812.857.078-1.158c.434.25.652.375,1.088.624-.044-.457-.065-.688-.107-1.147.462.215.692.321,1.154.534-.079-.453-.12-.68-.2-1.133l1.192.47c-.11-.447-.165-.671-.275-1.117.492.162.737.241,1.229.4l-.378-1.089,1.276.277L64.59,10.4c.283-.321.425-.479.708-.8-.507.137-.761.205-1.266.344.121-.447.184-.669.307-1.116-.485.187-.727.28-1.21.468.082-.456.123-.683.205-1.137-.47.21-.706.316-1.176.529.051-.461.078-.691.129-1.15-.456.235-.683.352-1.139.588.014-.464.022-.7.036-1.159l-1.07.675c-.058-.464-.087-.7-.145-1.159-.308.359-.464.54-.772.9-.33-.349-.493-.524-.823-.874-.033.468-.05.7-.084,1.172-.445-.254-.667-.381-1.112-.638.04.47.061.7.1,1.175-.473-.215-.708-.324-1.179-.541l.2,1.17c-.489-.185-.733-.277-1.22-.464.118.464.176.694.294,1.158-.5-.148-.756-.221-1.26-.37.173.45.258.674.429,1.123l-1.312-.184c.324.353.484.529.807.879" data-name="Path 4963" id="Path_4963-2"></path>
          <path fill="#27853b" transform="translate(36.261 3.889)" d="M66.042,11.5c-.324.294-.485.442-.809.739.51-.135.767-.2,1.277-.336-.114.464-.171.7-.285,1.161.475-.218.713-.325,1.187-.541-.054.471-.082.706-.137,1.178.453-.25.68-.377,1.134-.625-.016.471-.025.706-.04,1.179.434-.28.652-.419,1.086-.694.023.468.036.7.061,1.172l1.008-.776c.1.459.143.688.24,1.147.288-.386.431-.577.719-.96L72.3,15l.078-1.158c.434.25.652.375,1.088.624-.044-.457-.065-.688-.107-1.147.462.215.692.321,1.154.534-.079-.453-.12-.68-.2-1.133l1.192.47c-.11-.447-.165-.671-.275-1.117.492.162.737.241,1.229.4l-.378-1.089c.51.112.765.166,1.276.277l-.761-.753c.283-.321.425-.479.708-.8-.507.137-.761.205-1.266.344.121-.447.184-.669.307-1.116-.485.187-.727.28-1.21.468.082-.456.123-.683.205-1.137-.47.21-.706.316-1.176.529.051-.461.078-.691.129-1.15-.456.235-.683.352-1.139.588.014-.464.022-.7.036-1.159l-1.07.675c-.058-.464-.087-.7-.145-1.159-.308.359-.464.54-.772.9-.33-.349-.493-.524-.823-.874-.033.468-.05.7-.084,1.172-.445-.254-.667-.381-1.112-.638.04.47.061.7.1,1.175-.473-.215-.708-.324-1.179-.541l.2,1.17c-.489-.185-.733-.277-1.22-.464.118.464.176.694.294,1.158-.5-.148-.756-.221-1.26-.37.173.45.258.674.429,1.122-.524-.072-.787-.109-1.312-.182.324.353.484.529.807.879" data-name="Path 4964" id="Path_4964-2"></path>
          <path fill="#27853b" transform="translate(42.932 3.606)" d="M78.043,10.993c-.324.294-.485.442-.809.739.51-.135.767-.2,1.277-.336-.114.464-.171.7-.285,1.161.475-.218.713-.325,1.187-.541-.054.471-.082.706-.137,1.178.453-.25.68-.377,1.134-.625-.016.471-.025.706-.04,1.179.434-.28.652-.419,1.086-.694.023.468.036.7.061,1.172l1.008-.776c.1.459.143.688.24,1.147.288-.386.431-.577.719-.96l.812.857.078-1.158c.434.25.652.375,1.088.624-.044-.457-.065-.688-.107-1.147.462.215.692.321,1.154.534-.079-.453-.12-.68-.2-1.133l1.192.47c-.11-.447-.165-.671-.275-1.117.492.162.737.241,1.229.4l-.378-1.089,1.276.277-.761-.753c.283-.321.425-.479.708-.8-.507.137-.761.205-1.266.344.121-.447.184-.669.307-1.116-.485.187-.727.28-1.21.468.082-.456.123-.683.205-1.137-.47.21-.706.316-1.176.529.051-.461.078-.691.129-1.15-.456.235-.683.352-1.139.588.014-.464.022-.7.036-1.159l-1.07.675c-.058-.464-.087-.7-.145-1.159-.308.359-.464.54-.772.9-.33-.349-.495-.524-.823-.874-.033.468-.05.7-.084,1.172-.445-.254-.667-.381-1.112-.638.04.47.061.7.1,1.175-.473-.215-.708-.324-1.179-.541l.2,1.17c-.489-.185-.733-.277-1.22-.464.118.464.176.694.294,1.158-.5-.148-.756-.221-1.26-.37.173.45.258.674.429,1.123l-1.312-.184c.324.353.484.529.807.879" data-name="Path 4965" id="Path_4965-2"></path>
          <path fill="#27853b" transform="translate(48.956 3.606)" d="M88.88,10.993c-.324.294-.485.442-.809.739.51-.135.767-.2,1.277-.336-.114.464-.171.7-.285,1.161.475-.218.713-.325,1.187-.541-.054.471-.082.706-.137,1.178.453-.25.68-.377,1.134-.625-.016.471-.025.706-.04,1.179.434-.28.65-.419,1.086-.694.023.468.036.7.061,1.172l1.008-.776c.1.459.143.688.24,1.147.288-.386.431-.577.719-.96l.812.857c.031-.464.047-.7.078-1.158.434.25.652.375,1.088.624-.044-.457-.065-.688-.107-1.147.462.215.692.321,1.154.534-.079-.453-.12-.68-.2-1.133l1.192.47c-.11-.447-.165-.671-.275-1.117.492.162.737.241,1.229.4l-.378-1.089,1.276.277-.761-.753c.283-.321.425-.479.708-.8-.507.137-.761.205-1.266.344.121-.447.184-.669.306-1.116-.485.187-.727.28-1.21.468.082-.456.123-.683.205-1.137-.47.21-.706.316-1.176.529.051-.461.078-.691.129-1.15-.456.235-.683.352-1.139.588.014-.464.022-.7.036-1.159l-1.07.675c-.058-.464-.087-.7-.145-1.159-.308.359-.464.54-.772.9-.33-.349-.495-.524-.823-.874-.033.468-.05.7-.084,1.172-.445-.254-.667-.381-1.112-.638.04.47.061.7.1,1.175-.473-.215-.708-.324-1.179-.541l.2,1.17c-.489-.185-.733-.277-1.22-.464.118.464.176.694.294,1.158-.5-.148-.756-.221-1.26-.37.173.45.258.674.429,1.123l-1.312-.184c.324.353.484.529.808.879" data-name="Path 4966" id="Path_4966-2"></path>
          <path fill="#27853b" transform="translate(55.626 3.606)" d="M100.88,10.993c-.324.294-.485.442-.809.739.51-.135.767-.2,1.277-.336-.114.464-.171.7-.285,1.161l1.187-.541c-.054.471-.082.706-.137,1.178.453-.25.68-.377,1.134-.625-.016.471-.025.706-.04,1.179.434-.28.652-.419,1.086-.694.023.468.036.7.061,1.172l1.008-.776c.1.459.143.688.24,1.147.288-.386.431-.577.719-.96l.812.857c.031-.464.047-.7.078-1.158.434.25.652.375,1.088.624-.044-.457-.065-.688-.107-1.147.462.215.692.321,1.154.534-.079-.453-.12-.68-.2-1.133l1.192.47c-.11-.447-.165-.671-.275-1.117.492.162.737.241,1.229.4l-.378-1.089,1.276.277-.761-.753c.283-.321.425-.479.708-.8-.507.137-.761.205-1.266.344l.307-1.116c-.485.187-.727.28-1.21.468.082-.456.123-.683.205-1.137-.47.21-.706.316-1.176.529.051-.461.078-.691.129-1.15-.456.235-.683.352-1.139.588.014-.464.022-.7.036-1.159l-1.07.675c-.058-.464-.087-.7-.145-1.159-.308.359-.464.54-.772.9-.33-.349-.493-.524-.823-.874-.033.468-.05.7-.084,1.172-.445-.254-.667-.381-1.112-.638.04.47.061.7.1,1.175-.473-.215-.708-.324-1.179-.541l.2,1.17c-.489-.185-.733-.277-1.22-.464.118.464.176.694.294,1.158-.5-.148-.756-.221-1.26-.37.173.45.258.674.429,1.123l-1.312-.184c.324.353.484.529.808.879" data-name="Path 4967" id="Path_4967-2"></path>
          <path fill="#27853b" transform="translate(62.297 3.889)" d="M112.881,11.5c-.324.294-.485.442-.809.739.51-.135.767-.2,1.277-.336-.114.464-.171.7-.285,1.161l1.187-.541c-.054.471-.082.706-.137,1.178.453-.25.68-.377,1.134-.625-.016.471-.025.706-.04,1.179.434-.28.652-.419,1.086-.694.023.468.036.7.061,1.172l1.008-.776c.1.459.143.688.24,1.147.288-.386.431-.577.719-.96l.812.857c.031-.464.047-.7.078-1.158.434.25.652.375,1.088.624-.044-.457-.065-.688-.107-1.147.462.215.692.321,1.154.534-.079-.453-.12-.68-.2-1.133l1.192.47c-.11-.447-.165-.671-.275-1.117.492.162.737.241,1.229.4l-.378-1.089c.51.112.765.166,1.276.277l-.761-.753c.283-.321.425-.479.708-.8-.507.137-.761.205-1.266.344.121-.447.184-.669.307-1.116-.485.187-.727.28-1.21.468.082-.456.123-.683.205-1.137-.47.21-.706.316-1.176.529.051-.461.078-.691.129-1.15-.456.235-.683.352-1.139.588.014-.464.022-.7.036-1.159l-1.07.675c-.058-.464-.087-.7-.145-1.159-.308.359-.464.54-.772.9-.33-.349-.493-.524-.823-.874-.033.468-.05.7-.084,1.172-.445-.254-.667-.381-1.112-.638.04.47.061.7.1,1.175-.473-.215-.708-.324-1.179-.541l.2,1.17c-.489-.185-.733-.277-1.22-.464.118.464.176.694.294,1.158-.5-.148-.756-.221-1.26-.37.173.45.258.674.429,1.122-.524-.072-.787-.109-1.312-.182.324.353.484.529.808.879" data-name="Path 4968" id="Path_4968-2"></path>
          <path fill="#27853b" transform="translate(68.968 3.606)" d="M124.88,10.993c-.324.294-.484.442-.807.739.509-.135.765-.2,1.277-.336-.115.464-.171.7-.286,1.161l1.187-.541c-.054.471-.081.706-.137,1.178.453-.25.681-.377,1.136-.625-.017.471-.026.706-.04,1.179.434-.28.65-.419,1.084-.694.023.468.037.7.062,1.172.4-.311.605-.467,1.007-.776.1.459.143.688.241,1.147.288-.386.429-.577.717-.96l.812.857c.033-.464.047-.7.078-1.158l1.089.624c-.044-.457-.067-.688-.107-1.147l1.153.534c-.079-.453-.12-.68-.2-1.133l1.19.47c-.11-.447-.163-.671-.275-1.117l1.231.4-.378-1.089,1.274.277-.761-.753.708-.8c-.507.137-.759.205-1.265.344.121-.447.184-.669.3-1.116-.485.187-.727.28-1.21.468.084-.456.124-.683.205-1.137-.47.21-.7.316-1.175.529.05-.461.078-.691.128-1.15-.456.235-.683.352-1.137.588.014-.464.02-.7.034-1.159l-1.07.675c-.056-.464-.087-.7-.143-1.159-.31.359-.464.54-.772.9-.331-.349-.493-.524-.825-.874-.033.468-.05.7-.082,1.172-.447-.254-.667-.381-1.114-.638.04.47.061.7.1,1.175-.475-.215-.709-.324-1.181-.541.081.468.121.7.2,1.17-.49-.185-.733-.277-1.221-.464.12.464.176.694.3,1.158l-1.262-.37c.173.45.258.674.429,1.123l-1.31-.184c.324.353.484.529.806.879" data-name="Path 4969" id="Path_4969-2"></path>
          <path fill="#27853b" transform="translate(74.991 3.606)" d="M135.718,10.993c-.324.294-.485.442-.809.739.51-.135.767-.2,1.277-.336-.114.464-.171.7-.285,1.161.475-.218.713-.325,1.187-.541-.054.471-.082.706-.137,1.178.453-.25.68-.377,1.134-.625-.016.471-.025.706-.04,1.179.434-.28.652-.419,1.086-.694.023.468.036.7.061,1.172l1.008-.776c.1.459.143.688.24,1.147.288-.386.431-.577.719-.96l.812.857.078-1.158c.434.25.652.375,1.088.624-.044-.457-.065-.688-.107-1.147.462.215.692.321,1.154.534-.079-.453-.12-.68-.2-1.133l1.192.47c-.11-.447-.165-.671-.275-1.117.492.162.738.241,1.229.4l-.378-1.089,1.276.277-.761-.753c.283-.321.425-.479.708-.8-.507.137-.761.205-1.266.344.121-.447.184-.669.306-1.116-.485.187-.727.28-1.21.468.082-.456.123-.683.205-1.137-.47.21-.706.316-1.176.529.051-.461.078-.691.129-1.15-.456.235-.683.352-1.139.588.014-.464.022-.7.036-1.159l-1.07.675c-.058-.464-.087-.7-.145-1.159-.308.359-.464.54-.772.9-.33-.349-.493-.524-.823-.874-.033.468-.05.7-.084,1.172-.445-.254-.667-.381-1.112-.638.04.47.061.7.1,1.175-.473-.215-.708-.324-1.179-.541l.2,1.17c-.489-.185-.733-.277-1.22-.464.117.464.176.694.294,1.158-.5-.148-.756-.221-1.26-.37.173.45.258.674.429,1.123l-1.312-.184c.324.353.484.529.807.879" data-name="Path 4970" id="Path_4970-2"></path>
          <path fill="#27853b" transform="translate(81.662 3.606)" d="M147.719,10.993c-.324.294-.485.442-.809.739.51-.135.767-.2,1.277-.336-.114.464-.171.7-.285,1.161.475-.218.713-.325,1.187-.541-.054.471-.082.706-.137,1.178.453-.25.68-.377,1.134-.625-.016.471-.025.706-.04,1.179.434-.28.65-.419,1.086-.694.023.468.036.7.061,1.172l1.008-.776c.1.459.143.688.24,1.147.288-.386.431-.577.719-.96l.812.857c.031-.464.047-.7.078-1.158.434.25.652.375,1.088.624-.044-.457-.065-.688-.107-1.147.462.215.692.321,1.154.534-.079-.453-.12-.68-.2-1.133l1.192.47c-.111-.447-.165-.671-.275-1.117.492.162.738.241,1.229.4l-.378-1.089,1.276.277-.761-.753c.283-.321.425-.479.708-.8-.507.137-.761.205-1.266.344.121-.447.184-.669.307-1.116-.485.187-.727.28-1.21.468.082-.456.123-.683.205-1.137-.47.21-.706.316-1.176.529.051-.461.078-.691.129-1.15-.456.235-.683.352-1.139.588.014-.464.022-.7.036-1.159l-1.07.675c-.058-.464-.087-.7-.145-1.159-.308.359-.464.54-.772.9-.33-.349-.495-.524-.823-.874-.033.468-.05.7-.084,1.172-.445-.254-.667-.381-1.112-.638.04.47.061.7.1,1.175-.473-.215-.708-.324-1.179-.541l.2,1.17c-.489-.185-.733-.277-1.22-.464.117.464.176.694.294,1.158-.5-.148-.756-.221-1.26-.37.173.45.258.674.429,1.123l-1.312-.184c.324.353.484.529.808.879" data-name="Path 4971" id="Path_4971-2"></path>
          <path fill="#27853b" transform="translate(88.333 3.889)" d="M159.72,11.5c-.324.294-.485.442-.809.739.51-.135.767-.2,1.277-.336-.114.464-.171.7-.285,1.161.475-.218.713-.325,1.187-.541-.054.471-.082.706-.137,1.178.453-.25.68-.377,1.134-.625-.016.471-.025.706-.04,1.179.434-.28.65-.419,1.086-.694.023.468.036.7.061,1.172l1.008-.776c.1.459.143.688.24,1.147.288-.386.431-.577.719-.96l.812.857c.031-.464.047-.7.078-1.158.434.25.652.375,1.088.624-.044-.457-.065-.688-.107-1.147.462.215.692.321,1.154.534-.079-.453-.12-.68-.2-1.133l1.192.47c-.11-.447-.165-.671-.275-1.117.492.162.737.241,1.229.4l-.378-1.089c.51.112.765.166,1.276.277l-.761-.753c.283-.321.425-.479.708-.8-.507.137-.761.205-1.266.344.121-.447.184-.669.306-1.116-.485.187-.727.28-1.21.468.082-.456.123-.683.205-1.137-.47.21-.706.316-1.176.529.051-.461.078-.691.129-1.15-.456.235-.683.352-1.139.588.014-.464.022-.7.036-1.159l-1.07.675c-.058-.464-.087-.7-.145-1.159-.308.359-.464.54-.772.9-.33-.349-.495-.524-.823-.874-.033.468-.05.7-.084,1.172-.445-.254-.667-.381-1.112-.638.04.47.061.7.1,1.175-.473-.215-.708-.324-1.179-.541l.2,1.17c-.489-.185-.733-.277-1.22-.464.118.464.176.694.294,1.158-.5-.148-.756-.221-1.26-.37.173.45.258.674.429,1.122-.524-.072-.787-.109-1.312-.182.324.353.484.529.807.879" data-name="Path 4972" id="Path_4972-2"></path>
          <path fill="#27853b" transform="translate(95.004 3.606)" d="M171.72,10.993c-.324.294-.485.442-.809.739.51-.135.767-.2,1.277-.336-.114.464-.171.7-.285,1.161.475-.218.713-.325,1.187-.541-.054.471-.082.706-.137,1.178.453-.25.68-.377,1.134-.625-.016.471-.025.706-.04,1.179.434-.28.65-.419,1.086-.694.023.468.036.7.061,1.172l1.008-.776c.1.459.143.688.24,1.147.288-.386.431-.577.719-.96l.812.857c.031-.464.047-.7.078-1.158.434.25.652.375,1.088.624-.044-.457-.065-.688-.107-1.147.462.215.692.321,1.154.534-.079-.453-.12-.68-.2-1.133l1.192.47c-.11-.447-.165-.671-.275-1.117.492.162.737.241,1.229.4l-.378-1.089,1.276.277-.761-.753c.283-.321.425-.479.708-.8-.507.137-.761.205-1.266.344.121-.447.184-.669.306-1.116-.485.187-.727.28-1.21.468.082-.456.123-.683.205-1.137-.47.21-.706.316-1.176.529.051-.461.078-.691.129-1.15-.456.235-.683.352-1.139.588.014-.464.022-.7.036-1.159l-1.07.675c-.058-.464-.087-.7-.145-1.159-.308.359-.464.54-.772.9-.33-.349-.495-.524-.823-.874-.033.468-.05.7-.084,1.172-.445-.254-.667-.381-1.112-.638.04.47.061.7.1,1.175-.473-.215-.708-.324-1.179-.541l.2,1.17c-.489-.185-.733-.277-1.22-.464.117.464.176.694.294,1.158-.5-.148-.756-.221-1.26-.37.173.45.258.674.429,1.123l-1.312-.184c.324.353.484.529.807.879" data-name="Path 4973" id="Path_4973-2"></path>
          <path fill="#27853b" transform="translate(101.028 3.606)" d="M182.557,10.993c-.324.294-.485.442-.809.739.51-.135.767-.2,1.277-.336-.114.464-.171.7-.285,1.161l1.187-.541c-.054.471-.082.706-.137,1.178.453-.25.68-.377,1.134-.625-.016.471-.025.706-.04,1.179.434-.28.652-.419,1.086-.694.023.468.036.7.061,1.172l1.008-.776c.1.459.143.688.24,1.147.288-.386.431-.577.719-.96l.812.857c.031-.464.047-.7.078-1.158.434.25.652.375,1.088.624-.044-.457-.065-.688-.107-1.147.462.215.692.321,1.154.534-.079-.453-.12-.68-.2-1.133l1.192.47c-.11-.447-.165-.671-.275-1.117.492.162.737.241,1.229.4l-.378-1.089,1.276.277-.761-.753c.283-.321.425-.479.708-.8-.507.137-.761.205-1.266.344l.306-1.116c-.485.187-.727.28-1.21.468.082-.456.123-.683.205-1.137-.47.21-.706.316-1.176.529.051-.461.078-.691.129-1.15-.456.235-.683.352-1.139.588.014-.464.022-.7.036-1.159l-1.07.675c-.058-.464-.087-.7-.145-1.159-.308.359-.464.54-.772.9-.33-.349-.493-.524-.823-.874-.033.468-.05.7-.084,1.172-.445-.254-.667-.381-1.112-.638.04.47.061.7.1,1.175-.473-.215-.708-.324-1.179-.541l.2,1.17c-.489-.185-.733-.277-1.22-.464.118.464.176.694.294,1.158-.5-.148-.756-.221-1.26-.37.173.45.258.674.429,1.123l-1.312-.184.808.879" data-name="Path 4974" id="Path_4974-2"></path>
          <path fill="#27853b" transform="translate(107.699 3.606)" d="M194.558,10.993c-.324.294-.485.442-.809.739.51-.135.767-.2,1.277-.336-.114.464-.171.7-.285,1.161.475-.218.713-.325,1.187-.541-.054.471-.082.706-.137,1.178.453-.25.68-.377,1.134-.625-.016.471-.025.706-.04,1.179.434-.28.652-.419,1.086-.694.023.468.036.7.061,1.172l1.008-.776c.1.459.143.688.24,1.147.288-.386.431-.577.719-.96l.812.857.078-1.158c.434.25.652.375,1.088.624-.044-.457-.065-.688-.107-1.147.462.215.692.321,1.154.534-.079-.453-.12-.68-.2-1.133l1.192.47c-.11-.447-.165-.671-.275-1.117.492.162.737.241,1.229.4l-.378-1.089,1.276.277-.761-.753c.283-.321.425-.479.708-.8-.507.137-.761.205-1.266.344.121-.447.184-.669.307-1.116-.485.187-.727.28-1.21.468.082-.456.123-.683.205-1.137-.47.21-.706.316-1.176.529.051-.461.078-.691.129-1.15-.456.235-.683.352-1.139.588.014-.464.022-.7.036-1.159l-1.07.675c-.058-.464-.087-.7-.145-1.159-.308.359-.464.54-.772.9-.33-.349-.493-.524-.823-.874-.033.468-.05.7-.084,1.172-.445-.254-.667-.381-1.112-.638.04.47.061.7.1,1.175-.473-.215-.708-.324-1.179-.541l.2,1.17c-.489-.185-.733-.277-1.22-.464.118.464.176.694.294,1.158-.5-.148-.756-.221-1.26-.37.173.45.258.674.429,1.123l-1.312-.184c.324.353.484.529.807.879" data-name="Path 4975" id="Path_4975-2"></path>
          <path fill="#27853b" transform="translate(114.369 3.889)" d="M206.559,11.5c-.324.294-.485.442-.809.739.51-.135.767-.2,1.277-.336-.114.464-.171.7-.285,1.161.475-.218.713-.325,1.187-.541-.054.471-.082.706-.137,1.178.453-.25.68-.377,1.134-.625-.016.471-.025.706-.04,1.179.434-.28.652-.419,1.086-.694.023.468.036.7.061,1.172l1.008-.776c.1.459.143.688.24,1.147.288-.386.431-.577.719-.96l.812.857c.031-.464.047-.7.078-1.158.434.25.652.375,1.088.624-.044-.457-.065-.688-.107-1.147.462.215.692.321,1.154.534-.079-.453-.12-.68-.2-1.133l1.192.47c-.11-.447-.165-.671-.275-1.117.492.162.737.241,1.229.4l-.378-1.089c.51.112.766.166,1.276.277l-.761-.753c.283-.321.425-.479.708-.8-.507.137-.761.205-1.266.344.121-.447.184-.669.307-1.116-.485.187-.727.28-1.21.468.082-.456.123-.683.205-1.137-.47.21-.706.316-1.176.529.051-.461.078-.691.129-1.15-.456.235-.683.352-1.139.588.014-.464.022-.7.036-1.159l-1.07.675c-.058-.464-.087-.7-.145-1.159-.308.359-.464.54-.772.9-.33-.349-.493-.524-.823-.874-.033.468-.05.7-.084,1.172-.445-.254-.667-.381-1.112-.638.04.47.061.7.1,1.175-.473-.215-.708-.324-1.179-.541l.2,1.17c-.489-.185-.733-.277-1.22-.464.117.464.176.694.294,1.158-.5-.148-.756-.221-1.26-.37.173.45.258.674.429,1.122-.524-.072-.787-.109-1.312-.182.324.353.484.529.807.879" data-name="Path 4976" id="Path_4976-2"></path>
          <path fill="#27853b" transform="translate(121.04 3.606)" d="M218.559,10.993c-.324.294-.485.442-.809.739.51-.135.767-.2,1.277-.336-.114.464-.171.7-.285,1.161.475-.218.713-.325,1.187-.541-.054.471-.082.706-.137,1.178.453-.25.68-.377,1.134-.625-.016.471-.025.706-.04,1.179.434-.28.652-.419,1.086-.694.023.468.036.7.061,1.172l1.008-.776c.1.459.143.688.24,1.147.288-.386.431-.577.719-.96l.812.857.078-1.158c.434.25.652.375,1.088.624-.044-.457-.065-.688-.107-1.147.462.215.692.321,1.154.534-.079-.453-.12-.68-.2-1.133l1.192.47c-.11-.447-.165-.671-.275-1.117.492.162.738.241,1.229.4l-.378-1.089,1.276.277-.761-.753c.283-.321.425-.479.708-.8-.507.137-.761.205-1.266.344.121-.447.184-.669.306-1.116-.485.187-.727.28-1.21.468.082-.456.123-.683.205-1.137-.47.21-.706.316-1.176.529.051-.461.078-.691.129-1.15-.456.235-.683.352-1.139.588.014-.464.022-.7.036-1.159l-1.07.675c-.058-.464-.087-.7-.145-1.159-.308.359-.464.54-.772.9-.33-.349-.495-.524-.823-.874-.033.468-.05.7-.084,1.172-.445-.254-.667-.381-1.112-.638.04.47.061.7.1,1.175-.473-.215-.708-.324-1.179-.541l.2,1.17c-.489-.185-.733-.277-1.22-.464.118.464.176.694.294,1.158-.5-.148-.756-.221-1.26-.37.173.45.258.674.429,1.123l-1.312-.184c.324.353.484.529.807.879" data-name="Path 4977" id="Path_4977-2"></path>
          <path fill="#27853b" transform="translate(127.064 3.606)" d="M229.4,10.993c-.324.294-.485.442-.809.739.51-.135.767-.2,1.277-.336-.114.464-.171.7-.285,1.161.475-.218.713-.325,1.187-.541-.054.471-.082.706-.137,1.178.453-.25.68-.377,1.134-.625-.016.471-.025.706-.04,1.179.434-.28.65-.419,1.086-.694.023.468.036.7.061,1.172l1.008-.776c.1.459.143.688.24,1.147.288-.386.431-.577.719-.96l.812.857.078-1.158c.434.25.652.375,1.088.624-.044-.457-.065-.688-.107-1.147.462.215.692.321,1.154.534-.079-.453-.12-.68-.2-1.133l1.192.47c-.11-.447-.165-.671-.275-1.117.492.162.737.241,1.229.4l-.378-1.089,1.276.277-.761-.753c.283-.321.425-.479.708-.8-.507.137-.761.205-1.266.344.121-.447.184-.669.307-1.116-.485.187-.727.28-1.21.468.082-.456.123-.683.205-1.137-.47.21-.706.316-1.176.529.051-.461.078-.691.129-1.15-.456.235-.683.352-1.139.588.014-.464.022-.7.036-1.159l-1.07.675c-.058-.464-.087-.7-.145-1.159-.308.359-.464.54-.772.9-.33-.349-.495-.524-.823-.874-.033.468-.05.7-.084,1.172-.445-.254-.667-.381-1.112-.638.04.47.061.7.1,1.175-.473-.215-.708-.324-1.179-.541l.2,1.17c-.489-.185-.733-.277-1.22-.464.117.464.176.694.294,1.158-.5-.148-.756-.221-1.26-.37.173.45.258.674.429,1.123l-1.312-.184c.324.353.484.529.807.879" data-name="Path 4978" id="Path_4978-2"></path>
          <path fill="#27853b" transform="translate(133.735 3.606)" d="M241.4,10.993c-.324.294-.485.442-.809.739.51-.135.767-.2,1.277-.336-.114.464-.171.7-.285,1.161l1.187-.541c-.054.471-.082.706-.137,1.178.453-.25.68-.377,1.134-.625-.016.471-.025.706-.04,1.179.434-.28.652-.419,1.086-.694.023.468.036.7.061,1.172l1.008-.776c.1.459.143.688.24,1.147.288-.386.431-.577.719-.96l.812.857c.031-.464.047-.7.078-1.158.434.25.652.375,1.088.624-.044-.457-.065-.688-.107-1.147.462.215.692.321,1.154.534-.079-.453-.12-.68-.2-1.133l1.192.47c-.11-.447-.165-.671-.275-1.117.492.162.737.241,1.229.4l-.378-1.089,1.276.277-.761-.753c.283-.321.425-.479.708-.8-.507.137-.761.205-1.266.344l.307-1.116c-.485.187-.727.28-1.21.468.082-.456.123-.683.205-1.137-.47.21-.706.316-1.176.529.051-.461.078-.691.129-1.15-.456.235-.683.352-1.139.588.014-.464.022-.7.036-1.159l-1.07.675c-.058-.464-.087-.7-.145-1.159-.308.359-.464.54-.772.9-.33-.349-.493-.524-.823-.874-.033.468-.05.7-.084,1.172-.445-.254-.667-.381-1.112-.638.04.47.061.7.1,1.175-.473-.215-.708-.324-1.179-.541l.2,1.17c-.489-.185-.733-.277-1.22-.464.118.464.177.694.294,1.158-.5-.148-.756-.221-1.26-.37.173.45.258.674.429,1.123l-1.312-.184c.324.353.484.529.807.879" data-name="Path 4979" id="Path_4979-2"></path>
          <path fill="#27853b" transform="translate(140.405 3.889)" d="M253.4,11.5c-.324.294-.485.442-.809.739.51-.135.767-.2,1.277-.336-.114.464-.171.7-.285,1.161l1.187-.541c-.054.471-.082.706-.137,1.178.453-.25.68-.377,1.134-.625-.016.471-.025.706-.04,1.179.434-.28.652-.419,1.086-.694.023.468.036.7.061,1.172l1.008-.776c.1.459.143.688.24,1.147.288-.386.431-.577.719-.96.325.344.487.515.812.857l.078-1.158c.434.25.652.375,1.088.624-.044-.457-.065-.688-.107-1.147.462.215.692.321,1.154.534-.079-.453-.12-.68-.2-1.133l1.192.47c-.11-.447-.165-.671-.275-1.117.492.162.738.241,1.229.4l-.378-1.089c.51.112.765.166,1.276.277l-.761-.753c.283-.321.425-.479.708-.8-.507.137-.761.205-1.266.344.121-.447.184-.669.307-1.116-.485.187-.727.28-1.211.468.082-.456.123-.683.205-1.137-.47.21-.706.316-1.176.529.051-.461.078-.691.129-1.15-.456.235-.683.352-1.139.588.014-.464.022-.7.036-1.159l-1.07.675c-.058-.464-.087-.7-.145-1.159-.308.359-.464.54-.772.9-.33-.349-.493-.524-.823-.874-.033.468-.05.7-.084,1.172-.445-.254-.667-.381-1.112-.638.04.47.061.7.1,1.175-.473-.215-.708-.324-1.179-.541l.2,1.17c-.489-.185-.733-.277-1.22-.464.118.464.176.694.294,1.158-.5-.148-.756-.221-1.26-.37.173.45.258.674.429,1.122-.524-.072-.787-.109-1.312-.182.324.353.484.529.807.879" data-name="Path 4980" id="Path_4980-2"></path>
          <path fill="#27853b" transform="translate(147.076 3.606)" d="M265.4,10.993c-.324.294-.485.442-.809.739.51-.135.767-.2,1.277-.336-.114.464-.171.7-.285,1.161.475-.218.713-.325,1.187-.541-.054.471-.082.706-.137,1.178.453-.25.68-.377,1.134-.625-.016.471-.025.706-.04,1.179.434-.28.652-.419,1.086-.694.023.468.036.7.061,1.172l1.008-.776c.1.459.143.688.24,1.147.288-.386.431-.577.719-.96l.812.857.078-1.158c.434.25.652.375,1.088.624-.044-.457-.065-.688-.107-1.147.462.215.692.321,1.154.534-.079-.453-.12-.68-.2-1.133l1.192.47c-.11-.447-.165-.671-.275-1.117.492.162.738.241,1.229.4l-.378-1.089,1.276.277-.761-.753c.283-.321.425-.479.708-.8-.507.137-.761.205-1.266.344.121-.447.184-.669.306-1.116-.485.187-.727.28-1.21.468.082-.456.123-.683.205-1.137-.47.21-.706.316-1.176.529.051-.461.078-.691.129-1.15-.456.235-.683.352-1.139.588.014-.464.022-.7.036-1.159l-1.07.675c-.058-.464-.087-.7-.145-1.159-.308.359-.464.54-.772.9-.33-.349-.493-.524-.823-.874-.033.468-.05.7-.084,1.172-.445-.254-.667-.381-1.112-.638.04.47.061.7.1,1.175-.473-.215-.708-.324-1.179-.541l.2,1.17c-.489-.185-.733-.277-1.22-.464.118.464.176.694.294,1.158-.5-.148-.756-.221-1.26-.37.173.45.258.674.429,1.123l-1.312-.184c.324.353.484.529.807.879" data-name="Path 4981" id="Path_4981-2"></path>
          <path fill="#27853b" transform="translate(153.1 3.606)" d="M276.235,10.993c-.324.294-.485.442-.809.739.51-.135.767-.2,1.277-.336-.114.464-.171.7-.285,1.161.475-.218.713-.325,1.187-.541-.054.471-.082.706-.137,1.178.453-.25.68-.377,1.134-.625-.016.471-.025.706-.04,1.179.434-.28.652-.419,1.086-.694.023.468.036.7.061,1.172l1.008-.776c.1.459.143.688.24,1.147.288-.386.431-.577.719-.96l.812.857c.031-.464.047-.7.078-1.158.434.25.652.375,1.087.624-.044-.457-.065-.688-.107-1.147.462.215.692.321,1.154.534-.079-.453-.12-.68-.2-1.133l1.192.47c-.11-.447-.165-.671-.275-1.117.492.162.737.241,1.229.4l-.378-1.089,1.276.277-.761-.753c.283-.321.425-.479.708-.8-.507.137-.761.205-1.266.344.121-.447.184-.669.306-1.116-.485.187-.727.28-1.21.468.082-.456.123-.683.205-1.137-.47.21-.706.316-1.176.529.051-.461.078-.691.129-1.15-.456.235-.683.352-1.139.588.014-.464.022-.7.036-1.159l-1.07.675c-.058-.464-.087-.7-.145-1.159-.308.359-.464.54-.772.9-.33-.349-.495-.524-.823-.874-.033.468-.05.7-.084,1.172-.445-.254-.667-.381-1.112-.638.04.47.061.7.1,1.175-.473-.215-.708-.324-1.179-.541l.2,1.17c-.489-.185-.733-.277-1.22-.464.118.464.176.694.294,1.158-.5-.148-.756-.221-1.26-.37.173.45.258.674.429,1.123l-1.312-.184c.324.353.484.529.808.879" data-name="Path 4982" id="Path_4982-2"></path>
          <path fill="#27853b" transform="translate(159.771 3.606)" d="M288.236,10.993c-.324.294-.485.442-.809.739.51-.135.767-.2,1.277-.336-.114.464-.171.7-.285,1.161.475-.218.713-.325,1.187-.541-.054.471-.082.706-.137,1.178.453-.25.68-.377,1.134-.625-.016.471-.025.706-.04,1.179.434-.28.65-.419,1.086-.694.023.468.036.7.061,1.172l1.008-.776c.1.459.143.688.24,1.147.288-.386.431-.577.719-.96l.812.857c.031-.464.047-.7.078-1.158.434.25.652.375,1.088.624-.044-.457-.065-.688-.107-1.147.462.215.692.321,1.154.534-.079-.453-.12-.68-.2-1.133l1.192.47c-.111-.447-.165-.671-.275-1.117.492.162.738.241,1.229.4l-.378-1.089,1.276.277-.761-.753c.283-.321.425-.479.708-.8-.507.137-.761.205-1.266.344.121-.447.184-.669.306-1.116-.485.187-.727.28-1.21.468.082-.456.123-.683.205-1.137-.47.21-.706.316-1.176.529.051-.461.078-.691.129-1.15-.456.235-.683.352-1.139.588.014-.464.022-.7.036-1.159l-1.07.675c-.058-.464-.087-.7-.145-1.159-.308.359-.464.54-.772.9-.33-.349-.495-.524-.823-.874-.033.468-.05.7-.084,1.172-.445-.254-.668-.381-1.112-.638.04.47.061.7.1,1.175-.473-.215-.708-.324-1.179-.541l.2,1.17c-.489-.185-.733-.277-1.22-.464.118.464.176.694.294,1.158-.5-.148-.756-.221-1.26-.37.173.45.258.674.429,1.123l-1.312-.184c.324.353.484.529.807.879" data-name="Path 4983" id="Path_4983-2"></path>
          <path fill="#27853b" transform="translate(166.441 3.889)" d="M300.236,11.5c-.324.294-.485.442-.809.739.51-.135.767-.2,1.277-.336-.114.464-.171.7-.285,1.161.474-.218.713-.325,1.187-.541-.054.471-.082.706-.137,1.178.453-.25.68-.377,1.134-.625-.016.471-.025.706-.04,1.179.434-.28.65-.419,1.086-.694.023.468.036.7.061,1.172l1.008-.776c.1.459.143.688.24,1.147.288-.386.431-.577.719-.96.325.344.487.515.812.857l.078-1.158c.434.25.652.375,1.088.624-.043-.457-.065-.688-.107-1.147.462.215.692.321,1.154.534-.079-.453-.12-.68-.2-1.133l1.192.47c-.11-.447-.165-.671-.275-1.117.492.162.737.241,1.229.4l-.378-1.089c.51.112.766.166,1.276.277l-.761-.753c.283-.321.425-.479.708-.8-.507.137-.761.205-1.266.344.121-.447.184-.669.307-1.116-.485.187-.727.28-1.211.468.082-.456.123-.683.205-1.137-.47.21-.706.316-1.176.529.051-.461.078-.691.129-1.15-.456.235-.683.352-1.139.588.014-.464.022-.7.036-1.159l-1.07.675c-.058-.464-.087-.7-.145-1.159-.308.359-.464.54-.772.9-.33-.349-.495-.524-.823-.874-.033.468-.05.7-.084,1.172-.445-.254-.668-.381-1.112-.638.04.47.061.7.1,1.175-.473-.215-.708-.324-1.179-.541l.2,1.17c-.488-.185-.733-.277-1.22-.464.118.464.176.694.294,1.158-.5-.148-.756-.221-1.26-.37.173.45.258.674.429,1.122-.524-.072-.787-.109-1.312-.182.324.353.484.529.807.879" data-name="Path 4984" id="Path_4984-2"></path>
          <path fill="#27853b" transform="translate(173.112 3.606)" d="M312.237,10.993c-.324.294-.485.442-.809.739.51-.135.767-.2,1.277-.336-.114.464-.171.7-.285,1.161.475-.218.713-.325,1.187-.541-.054.471-.083.706-.137,1.178.453-.25.68-.377,1.134-.625-.016.471-.025.706-.04,1.179.434-.28.652-.419,1.086-.694.023.468.036.7.061,1.172l1.008-.776c.1.459.143.688.24,1.147.288-.386.431-.577.719-.96l.812.857c.031-.464.047-.7.078-1.158.434.25.652.375,1.088.624-.044-.457-.065-.688-.107-1.147.462.215.692.321,1.154.534-.079-.453-.12-.68-.2-1.133l1.192.47c-.11-.447-.165-.671-.275-1.117.492.162.737.241,1.229.4-.151-.436-.227-.653-.378-1.089l1.276.277-.761-.753c.283-.321.425-.479.708-.8-.507.137-.761.205-1.267.344l.307-1.116c-.485.187-.727.28-1.211.468.082-.456.123-.683.205-1.137-.47.21-.706.316-1.176.529.051-.461.078-.691.129-1.15-.456.235-.683.352-1.139.588.014-.464.022-.7.036-1.159l-1.07.675c-.058-.464-.087-.7-.145-1.159-.308.359-.464.54-.772.9-.33-.349-.493-.524-.823-.874-.033.468-.05.7-.084,1.172-.445-.254-.667-.381-1.112-.638.04.47.061.7.1,1.175-.471-.215-.708-.324-1.179-.541l.2,1.17c-.489-.185-.733-.277-1.22-.464.118.464.177.694.294,1.158-.5-.148-.756-.221-1.26-.37.173.45.258.674.429,1.123l-1.312-.184.808.879" data-name="Path 4985" id="Path_4985-2"></path>
          <path fill="#27853b" transform="translate(179.136 3.606)" d="M323.074,10.993c-.324.294-.485.442-.809.739.51-.135.767-.2,1.277-.336-.114.464-.171.7-.285,1.161.474-.218.713-.325,1.187-.541-.054.471-.082.706-.137,1.178.453-.25.68-.377,1.134-.625-.016.471-.025.706-.04,1.179.434-.28.652-.419,1.086-.694.023.468.036.7.061,1.172l1.008-.776c.1.459.143.688.24,1.147.288-.386.431-.577.719-.96l.812.857.078-1.158c.434.25.652.375,1.088.624-.044-.457-.065-.688-.107-1.147.462.215.692.321,1.154.534-.079-.453-.12-.68-.2-1.133l1.192.47c-.11-.447-.165-.671-.275-1.117.492.162.737.241,1.229.4l-.378-1.089,1.276.277-.761-.753c.283-.321.425-.479.708-.8-.507.137-.761.205-1.266.344.123-.447.184-.669.307-1.116-.485.187-.727.28-1.211.468.082-.456.123-.683.205-1.137-.47.21-.706.316-1.176.529.051-.461.078-.691.129-1.15-.456.235-.683.352-1.139.588.014-.464.022-.7.036-1.159l-1.07.675c-.058-.464-.087-.7-.145-1.159-.308.359-.464.54-.772.9-.33-.349-.493-.524-.823-.874-.033.468-.05.7-.084,1.172-.445-.254-.668-.381-1.112-.638.04.47.061.7.1,1.175-.473-.215-.708-.324-1.179-.541l.2,1.17c-.488-.185-.733-.277-1.22-.464.118.464.176.694.294,1.158-.5-.148-.756-.221-1.26-.37.173.45.258.674.429,1.123l-1.312-.184c.324.353.484.529.807.879" data-name="Path 4986" id="Path_4986-2"></path>
          <path fill="#27853b" transform="translate(185.807 3.606)" d="M335.073,10.993c-.324.294-.485.442-.807.739l1.276-.336c-.114.464-.17.7-.283,1.161.473-.218.711-.325,1.187-.541-.054.471-.084.706-.138,1.178l1.134-.625c-.016.471-.023.706-.04,1.179.434-.28.653-.419,1.086-.694.025.468.037.7.061,1.172.4-.311.607-.467,1.01-.776.095.459.142.688.238,1.147.288-.386.433-.577.72-.96.324.344.485.515.812.857.03-.464.047-.7.076-1.158.434.25.652.375,1.088.624-.044-.457-.064-.688-.107-1.147.462.215.694.321,1.156.534-.079-.453-.12-.68-.2-1.133l1.193.47c-.112-.447-.166-.671-.275-1.117.49.162.736.241,1.228.4l-.378-1.089,1.277.277-.762-.753c.283-.321.426-.479.708-.8-.507.137-.761.205-1.266.344.121-.447.184-.669.308-1.116-.487.187-.728.28-1.212.468.082-.456.123-.683.207-1.137-.47.21-.708.316-1.178.529.051-.461.078-.691.131-1.15-.456.235-.685.352-1.14.588.014-.464.022-.7.036-1.159-.428.269-.643.4-1.069.675-.059-.464-.087-.7-.146-1.159-.308.359-.464.54-.772.9l-.823-.874c-.033.468-.048.7-.082,1.172-.447-.254-.669-.381-1.112-.638.039.47.059.7.1,1.175-.471-.215-.708-.324-1.179-.541l.2,1.17c-.489-.185-.733-.277-1.22-.464.118.464.177.694.294,1.158l-1.26-.37c.173.45.258.674.429,1.123l-1.312-.184c.324.353.484.529.807.879" data-name="Path 4987" id="Path_4987-2"></path>
          <path fill="#27853b" transform="translate(192.478 3.889)" d="M347.075,11.5c-.324.294-.485.442-.809.739.51-.135.767-.2,1.277-.336-.114.464-.171.7-.285,1.161.475-.218.713-.325,1.187-.541-.054.471-.082.706-.137,1.178.453-.25.68-.377,1.134-.625-.016.471-.025.706-.04,1.179.434-.28.652-.419,1.086-.694.023.468.036.7.061,1.172l1.008-.776c.1.459.143.688.24,1.147.288-.386.431-.577.719-.96l.812.857.078-1.158c.434.25.652.375,1.088.624-.044-.457-.064-.688-.107-1.147.462.215.692.321,1.154.534-.079-.453-.12-.68-.2-1.133l1.192.47c-.11-.447-.165-.671-.275-1.117.492.162.738.241,1.229.4l-.378-1.089c.51.112.765.166,1.276.277l-.761-.753c.283-.321.425-.479.708-.8-.507.137-.761.205-1.266.344.121-.447.184-.669.306-1.116-.485.187-.727.28-1.21.468.082-.456.123-.683.205-1.137-.47.21-.706.316-1.176.529.051-.461.078-.691.129-1.15-.456.235-.683.352-1.139.588.014-.464.022-.7.036-1.159l-1.07.675c-.058-.464-.087-.7-.145-1.159-.308.359-.464.54-.772.9-.33-.349-.493-.524-.823-.874-.033.468-.05.7-.084,1.172-.445-.254-.667-.381-1.112-.638.04.47.061.7.1,1.175-.473-.215-.708-.324-1.179-.541l.2,1.17c-.489-.185-.733-.277-1.22-.464.118.464.176.694.294,1.158-.5-.148-.756-.221-1.26-.37.173.45.258.674.429,1.122-.524-.072-.787-.109-1.312-.182.324.353.484.529.807.879" data-name="Path 4988" id="Path_4988-2"></path>
          <path fill="#27853b" transform="translate(199.149 3.606)" d="M359.076,10.993c-.324.294-.485.442-.809.739.51-.135.767-.2,1.277-.336-.114.464-.171.7-.285,1.161.474-.218.713-.325,1.187-.541-.054.471-.082.706-.137,1.178.453-.25.68-.377,1.134-.625-.016.471-.025.706-.04,1.179.434-.28.65-.419,1.086-.694.023.468.036.7.061,1.172l1.008-.776c.1.459.143.688.24,1.147.288-.386.431-.577.719-.96l.812.857c.031-.464.047-.7.078-1.158.434.25.652.375,1.088.624-.043-.457-.065-.688-.107-1.147.462.215.692.321,1.154.534-.079-.453-.12-.68-.2-1.133l1.192.47c-.11-.447-.165-.671-.275-1.117.492.162.737.241,1.229.4l-.378-1.089,1.276.277-.761-.753c.283-.321.425-.479.708-.8-.507.137-.761.205-1.266.344.121-.447.184-.669.306-1.116-.485.187-.727.28-1.21.468.082-.456.123-.683.205-1.137-.47.21-.706.316-1.176.529.051-.461.078-.691.129-1.15-.456.235-.683.352-1.139.588.014-.464.022-.7.036-1.159l-1.07.675c-.058-.464-.087-.7-.145-1.159-.308.359-.464.54-.772.9-.33-.349-.495-.524-.823-.874-.033.468-.05.7-.084,1.172-.445-.254-.667-.381-1.112-.638.04.47.061.7.1,1.175-.473-.215-.708-.324-1.179-.541l.2,1.17c-.489-.185-.733-.277-1.22-.464.117.464.176.694.294,1.158-.5-.148-.756-.221-1.26-.37.173.45.258.674.429,1.123l-1.312-.184c.324.353.484.529.807.879" data-name="Path 4989" id="Path_4989-2"></path>
          <path fill="#27853b" transform="translate(205.172 3.606)" d="M369.913,10.993c-.324.294-.485.442-.809.739.51-.135.767-.2,1.277-.336-.114.464-.171.7-.285,1.161l1.187-.541c-.054.471-.082.706-.137,1.178.453-.25.68-.377,1.134-.625-.016.471-.025.706-.04,1.179.434-.28.652-.419,1.086-.694.023.468.036.7.061,1.172l1.008-.776c.1.459.143.688.24,1.147.288-.386.431-.577.719-.96l.812.857.078-1.158c.434.25.652.375,1.088.624-.044-.457-.065-.688-.107-1.147.462.215.692.321,1.154.534-.079-.453-.12-.68-.2-1.133l1.192.47c-.111-.447-.165-.671-.275-1.117.492.162.737.241,1.229.4l-.378-1.089,1.276.277-.761-.753c.283-.321.425-.479.708-.8-.507.137-.761.205-1.266.344l.306-1.116c-.485.187-.727.28-1.211.468.083-.456.123-.683.205-1.137-.47.21-.706.316-1.176.529.051-.461.078-.691.129-1.15-.456.235-.683.352-1.139.588.014-.464.022-.7.036-1.159l-1.07.675c-.057-.464-.087-.7-.145-1.159-.308.359-.464.54-.772.9-.33-.349-.493-.524-.823-.874-.033.468-.05.7-.084,1.172-.445-.254-.667-.381-1.112-.638.04.47.061.7.1,1.175-.471-.215-.708-.324-1.179-.541l.2,1.17c-.489-.185-.733-.277-1.22-.464.118.464.177.694.294,1.158-.5-.148-.756-.221-1.26-.37.173.45.258.674.429,1.123l-1.312-.184.807.879" data-name="Path 4990" id="Path_4990-2"></path>
          <path fill="#27853b" transform="translate(211.843 3.606)" d="M381.913,10.993c-.324.294-.485.442-.809.739.51-.135.767-.2,1.277-.336-.114.464-.171.7-.285,1.161.475-.218.713-.325,1.187-.541-.054.471-.082.706-.137,1.178.453-.25.68-.377,1.134-.625-.016.471-.025.706-.04,1.179.434-.28.652-.419,1.086-.694.023.468.036.7.061,1.172l1.008-.776c.1.459.143.688.24,1.147.288-.386.431-.577.719-.96l.812.857.078-1.158c.434.25.652.375,1.088.624-.044-.457-.065-.688-.107-1.147.462.215.692.321,1.154.534-.079-.453-.12-.68-.2-1.133l1.192.47c-.111-.447-.165-.671-.275-1.117.492.162.737.241,1.229.4l-.378-1.089,1.276.277-.761-.753c.283-.321.425-.479.708-.8-.507.137-.761.205-1.266.344.121-.447.184-.669.307-1.116-.485.187-.727.28-1.21.468.082-.456.123-.683.205-1.137-.47.21-.706.316-1.176.529.051-.461.078-.691.129-1.15-.456.235-.683.352-1.139.588.014-.464.022-.7.036-1.159l-1.07.675c-.058-.464-.087-.7-.145-1.159-.308.359-.464.54-.772.9-.33-.349-.493-.524-.823-.874-.033.468-.05.7-.084,1.172-.445-.254-.667-.381-1.112-.638.04.47.061.7.1,1.175-.473-.215-.708-.324-1.179-.541l.2,1.17c-.489-.185-.733-.277-1.22-.464.118.464.176.694.294,1.158-.5-.148-.756-.221-1.26-.37.173.45.258.674.429,1.123l-1.312-.184c.324.353.484.529.807.879" data-name="Path 4991" id="Path_4991-2"></path>
          <path fill="#27853b" transform="translate(218.514 3.889)" d="M393.914,11.5c-.324.294-.485.442-.809.739.51-.135.767-.2,1.277-.336-.114.464-.171.7-.285,1.161.475-.218.713-.325,1.187-.541-.054.471-.082.706-.137,1.178.453-.25.68-.377,1.134-.625-.016.471-.025.706-.04,1.179.434-.28.652-.419,1.086-.694.023.468.036.7.061,1.172l1.008-.776c.1.459.143.688.24,1.147.288-.386.431-.577.719-.96l.812.857.078-1.158c.434.25.652.375,1.088.624-.044-.457-.065-.688-.107-1.147.462.215.692.321,1.154.534-.079-.453-.12-.68-.2-1.133l1.192.47c-.111-.447-.165-.671-.275-1.117.492.162.737.241,1.229.4-.151-.436-.227-.653-.378-1.089.51.112.765.166,1.276.277l-.761-.753c.283-.321.425-.479.708-.8-.507.137-.761.205-1.266.344l.307-1.116c-.485.187-.727.28-1.211.468.082-.456.123-.683.205-1.137-.47.21-.706.316-1.176.529.051-.461.078-.691.129-1.15-.456.235-.683.352-1.139.588.014-.464.022-.7.036-1.159l-1.07.675c-.058-.464-.087-.7-.145-1.159-.308.359-.464.54-.772.9-.33-.349-.493-.524-.823-.874-.033.468-.05.7-.084,1.172-.445-.254-.668-.381-1.112-.638.04.47.061.7.1,1.175-.473-.215-.708-.324-1.179-.541l.2,1.17c-.489-.185-.733-.277-1.22-.464.118.464.176.694.294,1.158-.5-.148-.756-.221-1.26-.37.173.45.258.674.429,1.122-.524-.072-.787-.109-1.312-.182l.808.879" data-name="Path 4992" id="Path_4992-2"></path>
          <path fill="#27853b" transform="translate(225.185 3.606)" d="M405.915,10.993c-.324.294-.485.442-.809.739.51-.135.767-.2,1.277-.336-.114.464-.171.7-.285,1.161.475-.218.713-.325,1.187-.541-.054.471-.082.706-.137,1.178.453-.25.68-.377,1.134-.625-.016.471-.025.706-.04,1.179.434-.28.652-.419,1.086-.694.023.468.036.7.061,1.172l1.008-.776c.1.459.143.688.24,1.147.288-.386.431-.577.719-.96l.812.857.078-1.158c.434.25.652.375,1.088.624-.044-.457-.065-.688-.107-1.147.462.215.692.321,1.154.534-.079-.453-.12-.68-.2-1.133l1.192.47c-.11-.447-.165-.671-.275-1.117.492.162.738.241,1.229.4-.151-.436-.227-.653-.378-1.089l1.276.277-.761-.753c.283-.321.425-.479.708-.8-.507.137-.761.205-1.266.344.121-.447.184-.669.306-1.116-.485.187-.727.28-1.21.468.082-.456.123-.683.205-1.137-.47.21-.706.316-1.176.529.051-.461.078-.691.129-1.15-.456.235-.683.352-1.139.588.014-.464.022-.7.036-1.159l-1.07.675c-.058-.464-.087-.7-.145-1.159-.308.359-.464.54-.772.9-.33-.349-.493-.524-.823-.874-.033.468-.05.7-.084,1.172-.445-.254-.667-.381-1.112-.638.04.47.061.7.1,1.175-.473-.215-.708-.324-1.179-.541l.2,1.17c-.488-.185-.733-.277-1.22-.464.118.464.176.694.294,1.158-.5-.148-.756-.221-1.26-.37.173.45.258.674.429,1.123l-1.312-.184c.324.353.484.529.807.879" data-name="Path 4993" id="Path_4993-2"></path>
          <path fill="#27853b" transform="translate(231.209 3.606)" d="M416.752,10.993c-.324.294-.485.442-.809.739.51-.135.767-.2,1.277-.336-.114.464-.171.7-.285,1.161.475-.218.713-.325,1.187-.541-.054.471-.082.706-.137,1.178.453-.25.68-.377,1.134-.625-.016.471-.025.706-.04,1.179.434-.28.65-.419,1.086-.694.023.468.036.7.061,1.172l1.008-.776c.1.459.143.688.24,1.147.288-.386.431-.577.719-.96l.812.857c.031-.464.047-.7.078-1.158.434.25.652.375,1.087.624-.044-.457-.064-.688-.107-1.147.462.215.692.321,1.155.534-.079-.453-.12-.68-.2-1.133l1.192.47c-.11-.447-.165-.671-.275-1.117.492.162.737.241,1.229.4-.151-.436-.227-.653-.378-1.089l1.276.277L427.3,10.4c.283-.321.425-.479.708-.8-.507.137-.761.205-1.266.344.121-.447.184-.669.307-1.116-.485.187-.727.28-1.21.468.082-.456.123-.683.205-1.137-.47.21-.706.316-1.176.529.051-.461.078-.691.129-1.15-.456.235-.683.352-1.139.588.014-.464.022-.7.036-1.159l-1.07.675c-.058-.464-.087-.7-.145-1.159-.308.359-.464.54-.772.9-.33-.349-.493-.524-.823-.874-.033.468-.05.7-.084,1.172-.445-.254-.667-.381-1.112-.638.04.47.061.7.1,1.175-.473-.215-.708-.324-1.179-.541l.2,1.17c-.489-.185-.733-.277-1.22-.464.118.464.176.694.294,1.158-.5-.148-.756-.221-1.26-.37.173.45.258.674.429,1.123l-1.312-.184c.324.353.484.529.808.879" data-name="Path 4994" id="Path_4994-2"></path>
          <path fill="#27853b" transform="translate(237.879 3.606)" d="M428.752,10.993c-.324.294-.485.442-.809.739.51-.135.767-.2,1.277-.336-.114.464-.171.7-.285,1.161.474-.218.713-.325,1.187-.541-.054.471-.082.706-.137,1.178.453-.25.68-.377,1.134-.625-.016.471-.025.706-.04,1.179.434-.28.65-.419,1.086-.694.023.468.036.7.061,1.172l1.008-.776c.1.459.143.688.24,1.147.288-.386.431-.577.719-.96l.812.857c.031-.464.047-.7.078-1.158.434.25.652.375,1.087.624-.043-.457-.065-.688-.107-1.147.462.215.692.321,1.154.534-.079-.453-.12-.68-.2-1.133l1.192.47c-.11-.447-.165-.671-.275-1.117.492.162.737.241,1.229.4l-.378-1.089,1.276.277L439.3,10.4c.283-.321.425-.479.708-.8-.507.137-.761.205-1.266.344.121-.447.184-.669.306-1.116-.485.187-.727.28-1.21.468.082-.456.123-.683.205-1.137-.47.21-.706.316-1.176.529.051-.461.078-.691.129-1.15-.456.235-.683.352-1.139.588.014-.464.022-.7.036-1.159l-1.07.675c-.057-.464-.087-.7-.145-1.159-.308.359-.464.54-.772.9-.33-.349-.493-.524-.823-.874-.033.468-.05.7-.084,1.172-.445-.254-.667-.381-1.112-.638.04.47.061.7.1,1.175-.473-.215-.708-.324-1.179-.541l.2,1.17c-.489-.185-.733-.277-1.22-.464.118.464.176.694.294,1.158-.5-.148-.756-.221-1.26-.37.173.45.258.674.429,1.123l-1.312-.184c.324.353.484.529.807.879" data-name="Path 4995" id="Path_4995-2"></path>
          <path fill="#27853b" transform="translate(244.55 3.889)" d="M440.753,11.5c-.324.294-.485.442-.809.739.51-.135.767-.2,1.277-.336-.114.464-.171.7-.285,1.161.475-.218.713-.325,1.187-.541-.054.471-.082.706-.137,1.178.453-.25.68-.377,1.134-.625-.016.471-.025.706-.04,1.179.434-.28.65-.419,1.086-.694.023.468.036.7.061,1.172l1.008-.776c.1.459.143.688.24,1.147.288-.386.431-.577.719-.96l.812.857c.031-.464.047-.7.078-1.158.434.25.652.375,1.088.624-.044-.457-.065-.688-.107-1.147.462.215.692.321,1.154.534-.079-.453-.12-.68-.2-1.133l1.192.47c-.11-.447-.165-.671-.275-1.117.492.162.737.241,1.229.4l-.378-1.089c.51.112.765.166,1.276.277l-.761-.753c.283-.321.425-.479.708-.8-.507.137-.761.205-1.266.344.121-.447.184-.669.306-1.116-.485.187-.727.28-1.21.468.082-.456.123-.683.205-1.137-.47.21-.706.316-1.176.529.051-.461.078-.691.129-1.15-.456.235-.683.352-1.139.588.014-.464.022-.7.036-1.159l-1.07.675c-.058-.464-.087-.7-.145-1.159-.308.359-.464.54-.772.9-.33-.349-.495-.524-.823-.874-.033.468-.05.7-.084,1.172-.445-.254-.667-.381-1.112-.638.04.47.061.7.1,1.175-.473-.215-.708-.324-1.179-.541l.2,1.17c-.489-.185-.733-.277-1.22-.464.117.464.176.694.294,1.158-.5-.148-.756-.221-1.26-.37.173.45.258.674.429,1.122-.524-.072-.787-.109-1.312-.182.324.353.484.529.807.879" data-name="Path 4996" id="Path_4996-2"></path>
        </g>
      </g>
    </g>
  </g>
</svg>
