<?xml version="1.0" encoding="utf-8"?>
<!-- Generator: Adobe Illustrator 18.1.1, SVG Export Plug-In . SVG Version: 6.00 Build 0)  -->
<!DOCTYPE svg PUBLIC "-//W3C//DTD SVG 1.1//EN" "http://www.w3.org/Graphics/SVG/1.1/DTD/svg11.dtd">
<svg version="1.1" id="Layer_1" xmlns="http://www.w3.org/2000/svg" xmlns:xlink="http://www.w3.org/1999/xlink" x="0px" y="0px"
	 viewBox="0 0 149 169" enable-background="new 0 0 149 169" xml:space="preserve">
<g>
	<g>
		<defs>
			<path id="SVGID_5_" d="M94.1,78.2c-0.7,0.3-1.3,0.5-1.9,0.8c-2.1,1.1-4.1,2.2-6.2,3.2c-3.3,1.5-3.3,1.5-6.3-0.6
				c-1.9-1.4-4-2.4-6.5-3.1c0.1,1,0.2,1.9,0.4,2.7c0.3,1.9,0.5,3.7,0.8,5.6c0.1,0.8-0.3,1.2-0.8,1.8c-2.1,2.3-4.1,4.7-6.5,7.5
				c3.9,0.3,7.1,0.5,10.3,0.7c1.4,3.8,4.1,6.7,6.1,10.6c1.1-2.3,2-4.3,3-6.1c0.7-1.2,1.4-2.5,2.2-3.6c0.4-0.6,1-1.1,1.9-1
				c3.2,0.1,6.3,0,9.5,0c-2.1-2.3-4.3-4.5-6.4-6.8c-1.1-1.1-1.7-2.3-0.8-4C94,83.6,94.3,81,94.1,78.2L94.1,78.2z M125.5,74
				c-2.6,1-5.4,1.5-9.3,1.5c-0.7,0-1.3,0-2,0l-0.6,0l0.2-0.6c0.2-0.5,0.3-1,0.4-1.5c0.3-1,0.5-1.9,1-2.7c0.8-1.4,1.7-2.9,2.5-4.2
				c0.7-1.1,1.4-2.3,2.1-3.4c0.2-0.3,0.2-0.9,0-1.4c-0.2-0.7-0.7-1.4-1-2c-1.4-2.2-2.2-4.7-3-7.1l-0.2-0.6c-0.3-0.8-0.2-1.5,0.1-1.9
				c0.2-0.4,0.8-0.8,2-0.6c1.8,0.2,3.6,0.6,5.3,1l0.2,0c0.7,0.2,1.3,0.3,2,0.3c0.6,0,1-0.1,1.5-0.4c1.7-1.2,3.4-2.5,5-3.7
				c0.8-0.6,1.5-1.2,2.3-1.7c0.5-0.4,1-0.7,1.6-1.2l1.8-1.3l0.1,0.9c0,0.5,0.1,0.9,0.1,1.3c0.1,0.7,0.1,1.3,0.1,1.8
				c0,1.1-0.1,2.3-0.1,3.4c0,1.2-0.1,2.3-0.1,3.5l0,0.2c0,0.9,0,1.5,0.6,2c1.8,1.3,3.6,2.7,5.4,4c0.8,0.6,1.6,1.2,2.5,1.8l0.2,0.1
				c0.8,0.6,1.7,1.2,1.7,2.7l0,0.3l-0.2,0.2c-0.1,0.1-0.2,0.2-0.3,0.2c-0.2,0.2-0.4,0.4-0.7,0.5l-1.7,0.9c-2.1,1.1-4.3,2.3-6.6,3.4
				c-1.1,0.5-1.6,0.9-1.6,2.1c0,1.7-0.2,3.3-0.4,5c-0.1,0.9-0.2,1.9-0.3,2.9c-0.1,1.4-0.4,2.7-2.2,3.2l-0.3,0.1L125.5,74L125.5,74z
				 M125.4,71.2c1.2,0,2.1,0.8,2.8,1.5c1.5,1.6,2.9,3.3,4.4,4.9l1.1,1.2c0-0.5,0.1-1,0.1-1.5c0.1-2.3,0.3-4.7,0.4-7
				c0-1,0.5-1.8,1.3-2.3c1.2-0.8,2.4-1.5,3.7-2.1c1.3-0.6,2.6-1.2,4.1-1.8c0.4-0.2,0.8-0.3,1.2-0.5c-1.3-0.9-2.5-1.8-3.7-2.7
				c-1.8-1.4-3.5-2.7-5.4-3.6l-0.3-0.1l0-9.9c-0.5,0.4-1,0.8-1.5,1.2c-1.9,1.5-3.7,2.9-5.4,4.4c-0.6,0.5-1.2,1-2.2,0.8
				c-1.1-0.2-2.2-0.5-3.4-0.7l-2.1-0.4c-0.5-0.1-1.1-0.2-1.7-0.3l-0.2,0c0.5,2.2,1.3,4.1,2.5,6c2,3.3,2,3.5,0.2,6.9
				c-0.7,1.3-1.5,2.7-2.2,3.9c-0.4,0.7-0.9,1.5-1.3,2.2c-0.2,0.3-0.3,0.7-0.5,1.1c0,0,0,0.1,0,0.1c2.5,0.3,4.7,0,6.7-0.9
				C124.4,71.4,124.9,71.2,125.4,71.2L125.4,71.2z M35.5,111.6c-1,0.4-1.7,0.6-2.4,1c-2.7,1.4-5.4,2.9-8.1,4.2c-4.3,2-4.4,2-8.2-0.8
				c-2.5-1.8-5.2-3.2-8.6-4.1c0.2,1.4,0.3,2.5,0.5,3.6c0.3,2.4,0.7,4.9,1,7.4c0.1,1-0.4,1.6-1.1,2.4c-2.8,3-5.4,6.2-8.5,9.9
				c5.1,0.3,9.4,0.6,13.5,0.9c1.8,5,5.4,8.7,8,14c1.5-3.1,2.6-5.6,3.9-8c0.9-1.6,1.8-3.2,2.9-4.7c0.6-0.8,1.3-1.4,2.6-1.3
				c4.2,0.1,8.3,0,12.5,0c-2.8-3-5.6-5.9-8.4-8.9c-1.4-1.5-2.2-3-1-5.2C35.4,118.6,35.9,115.3,35.5,111.6L35.5,111.6z M79.8,8.3
				l2.5,0l-0.5,0.9c-0.3,0.5-0.5,0.9-0.7,1.3c-0.4,0.7-0.7,1.3-1.1,1.8c-0.7,1.1-1.5,2.1-2.3,3.1c-0.8,1.1-1.6,2.2-2.4,3.3l-0.1,0.2
				c-0.6,0.9-1,1.4-0.6,2.3c0.9,2.5,1.7,5,2.6,7.5c0.4,1.1,0.8,2.3,1.2,3.4l0.1,0.3c0.4,1.1,0.8,2.3-0.1,3.7l-0.2,0.3l-0.3,0
				c-0.1,0-0.3,0-0.4,0c-0.3,0-0.7,0.1-1,0L74.4,36c-2.8-0.3-5.6-0.7-8.4-1.1c-1.4-0.2-2.1-0.2-2.9,1c-1.1,1.6-2.3,3.1-3.5,4.5
				c-0.7,0.8-1.4,1.7-2.1,2.6c-1,1.2-2.1,2.3-4.2,1.5L53,44.3L51,30.7c-3.1-0.8-6.1-2.2-9.8-4.9c-0.6-0.4-1.3-0.9-1.9-1.4L38.6,24
				l0.6-0.5c0.5-0.4,1-0.8,1.4-1.2c0.9-0.8,1.7-1.4,2.6-1.9c1.7-0.8,3.4-1.6,5.1-2.3c1.4-0.6,2.8-1.2,4.2-1.9
				c0.3-0.2,0.7-0.7,0.9-1.3c0.2-0.8,0.3-1.8,0.3-2.6c0.1-3.1,0.9-6,1.7-8.8l0.2-0.7c0.3-0.9,0.7-1.5,1.3-1.8
				c0.5-0.2,1.3-0.2,2.3,0.8c1.6,1.4,3,3,4.4,4.5l0.2,0.2c0.5,0.6,1.1,1.2,1.7,1.6c0.6,0.4,1.1,0.6,1.7,0.6c2.4,0,4.8-0.1,7.1-0.2
				c1.1,0,2.2-0.1,3.3-0.1C78.2,8.4,78.9,8.3,79.8,8.3L79.8,8.3z M77.1,11.6c-0.8,0-1.5,0.1-2.2,0.1c-2.8,0.1-5.4,0.3-7.9,0.5
				c-0.9,0.1-1.8,0.2-2.6-0.7c-0.9-1-1.8-1.9-2.8-2.9l-1.7-1.8c-0.4-0.5-0.9-0.9-1.4-1.4l-0.2-0.2c-0.9,2.4-1.3,4.8-1.5,7.3
				c-0.2,4.4-0.4,4.7-4.2,6.8c-1.5,0.8-3.1,1.6-4.6,2.3c-0.9,0.4-1.8,0.8-2.6,1.3c-0.4,0.2-0.8,0.4-1.2,0.7c0,0-0.1,0-0.1,0.1
				c2.2,2,4.5,3.2,6.9,3.6c0.7,0.1,1.3,0.4,1.8,0.7c1.2,0.8,1.5,2.2,1.7,3.3c0.4,2.5,0.7,5.1,1.1,7.6l0.3,1.9
				c0.4-0.5,0.7-0.9,1.1-1.4c1.6-2.1,3.2-4.2,4.8-6.4c0.7-0.9,1.6-1.4,2.8-1.3c1.6,0,3.3,0.2,4.9,0.5c1.6,0.3,3.2,0.6,5,1
				c0.5,0.1,1,0.2,1.5,0.3c-0.7-1.7-1.3-3.4-1.8-5c-0.8-2.5-1.6-4.9-2.9-7.1l-0.2-0.3L77.1,11.6L77.1,11.6z M120.7,134.7
				c-0.4,0.7-0.7,1.3-1.1,1.8c-0.7,1.1-1.5,2.1-2.3,3.1c-0.8,1.1-1.6,2.2-2.3,3.3l-0.1,0.2c-0.6,0.9-1,1.4-0.6,2.3
				c0.9,2.5,1.7,5,2.6,7.5c0.4,1.1,0.8,2.3,1.2,3.4l0.1,0.3c0.4,1.1,0.8,2.3,0,3.7l-0.2,0.3l-0.3,0c-0.1,0-0.3,0-0.4,0
				c-0.3,0-0.7,0.1-1,0l-2.2-0.3c-2.8-0.3-5.6-0.7-8.4-1.1c-1.4-0.2-2.1-0.2-2.9,1c-1.1,1.6-2.3,3.1-3.5,4.5
				c-0.7,0.8-1.4,1.7-2.1,2.6c-1,1.2-2.1,2.3-4.2,1.5l-0.3-0.1L90.5,155c-3.1-0.8-6.1-2.2-9.8-4.9c-0.6-0.4-1.3-0.9-1.9-1.4
				l-0.6-0.5l0.6-0.5c0.5-0.4,1-0.8,1.4-1.2c0.9-0.8,1.7-1.4,2.6-1.9c1.7-0.8,3.4-1.6,5.1-2.4c1.4-0.6,2.8-1.2,4.2-1.9
				c0.3-0.2,0.7-0.7,0.9-1.3c0.2-0.8,0.3-1.8,0.3-2.6c0.1-3.1,0.9-6,1.7-8.8l0.2-0.7c0.3-0.9,0.7-1.5,1.3-1.8
				c0.5-0.2,1.3-0.2,2.3,0.8c1.6,1.4,3,3,4.4,4.5l0.2,0.2c0.5,0.6,1.1,1.2,1.7,1.6c0.6,0.4,1.1,0.6,1.7,0.6c2.4,0,4.8-0.1,7.1-0.2
				c1.1,0,2.2-0.1,3.3-0.1c0.7,0,1.4,0,2.3-0.1l2.5,0l-0.5,0.9C121.1,133.9,120.9,134.4,120.7,134.7L120.7,134.7z M116.6,135.9
				c-0.8,0-1.5,0.1-2.2,0.1c-2.8,0.1-5.4,0.3-7.9,0.5c-0.9,0.1-1.8,0.2-2.6-0.7c-0.9-1-1.8-1.9-2.8-2.9l-1.7-1.8
				c-0.4-0.5-0.9-0.9-1.4-1.4l-0.2-0.2c-0.9,2.4-1.3,4.8-1.5,7.3c-0.2,4.4-0.4,4.7-4.2,6.8c-1.5,0.8-3.1,1.6-4.6,2.3
				c-0.9,0.4-1.8,0.8-2.6,1.3c-0.4,0.2-0.8,0.4-1.2,0.7c0,0-0.1,0-0.1,0.1c2.2,2,4.5,3.2,6.9,3.6c0.7,0.1,1.3,0.4,1.8,0.7
				c1.2,0.8,1.5,2.2,1.7,3.3c0.4,2.5,0.7,5.1,1.1,7.6l0.3,1.9c0.4-0.5,0.7-0.9,1.1-1.4c1.6-2.1,3.2-4.2,4.8-6.4
				c0.7-0.9,1.6-1.4,2.8-1.3c1.6,0,3.3,0.2,4.9,0.5c1.6,0.3,3.2,0.6,5,1c0.5,0.1,1,0.2,1.5,0.3c-0.7-1.7-1.3-3.4-1.8-5
				c-0.8-2.5-1.6-4.9-2.9-7.1l-0.2-0.3L116.6,135.9L116.6,135.9L116.6,135.9z M116.6,135.9"/>
		</defs>
		<defs>
			<path id="SVGID_6_" d="M569.2,3685.5h-2500v-11155h2500 M-1930.8-7469.5"/>
		</defs>
		<clipPath id="SVGID_1_">
			<use xlink:href="#SVGID_5_"  overflow="visible"/>
		</clipPath>
		<clipPath id="SVGID_2_" clip-path="url(#SVGID_1_)">
			<use xlink:href="#SVGID_6_"  overflow="visible"/>
		</clipPath>
		<rect x="-5" y="-4" clip-path="url(#SVGID_2_)" fill="#FFFFFF" width="157.6" height="178"/>
	</g>
</g>
</svg>
